<svg width="100" height="100" viewBox="0 0 100 100" fill="none" xmlns="http://www.w3.org/2000/svg">
<g clip-path="url(#clip0_11_100)">
<path d="M98.3342 4.36346e-08C98.334 4.36346e-08 98.3335 4.36346e-08 98.3333 4.36346e-08H1.66667C0.746458 -0.00020829 0.000208333 0.745625 0 1.66583C0 1.66604 0 1.66646 0 1.66667V35H3.33333V3.33333H96.6667V40H38.3333V43.3333H98.3333C99.2535 43.3335 99.9998 42.5877 100 41.6675C100 41.6673 100 41.6669 100 41.6667V1.66667C100 0.746458 99.2544 0.000208377 98.3342 4.36346e-08Z" fill="#5A5252"/>
<path d="M88.3333 8.33337H55V11.6667H88.3333V8.33337Z" fill="#5A5252"/>
<path d="M93.3333 18.3334H60V21.6667H93.3333V18.3334Z" fill="#5A5252"/>
<path d="M86.6667 28.3334H53.3333V31.6667H86.6667V28.3334Z" fill="#5A5252"/>
<path d="M53.2004 14.3695C52.0594 11.6268 48.911 10.3285 46.1685 11.4695C46.1217 11.4891 46.075 11.5091 46.0288 11.53L32.5146 18.5404C33.0475 17.4358 33.3273 16.2262 33.3333 15C33.3333 10.3977 29.6023 6.66663 25 6.66663C20.3977 6.66663 16.6667 10.3977 16.6667 15C16.6729 16.8089 17.2735 18.5658 18.376 20H18.3067C13.5758 20.0316 9.35271 22.9727 7.6825 27.3991L3.23333 42.7343C2.17417 45.4856 3.54583 48.5748 6.29729 49.6339C7.55188 50.1168 8.9425 50.1087 10.1915 49.611C11.6265 49.0329 12.7431 47.8654 13.2571 46.4062L15 40.8593V64.9808C13.5658 63.8785 11.809 63.2779 10 63.2714C5.40458 63.2645 1.67354 66.9843 1.66667 71.58C1.66333 73.8306 2.57167 75.9864 4.18479 77.556C1.62479 78.8639 0.01 81.4923 4.36346e-08 84.3668V98.3333C-0.00020829 99.2535 0.745625 99.9998 1.66583 100C1.66604 100 1.66646 100 1.66667 100H18.3333C19.2535 100 19.9998 99.2543 20 98.3341C20 98.3339 20 98.3335 20 98.3333V84.3668C19.9919 82.0045 18.8944 79.7783 17.0258 78.3333H29.641C27.7723 79.7783 26.6748 82.0045 26.6669 84.3668V98.3333C26.6667 99.2535 27.4125 99.9998 28.3327 100C28.3329 100 28.3333 100 28.3335 100H45.0002C45.9204 100 46.6667 99.2543 46.6669 98.3341C46.6669 98.3339 46.6669 98.3335 46.6669 98.3333V84.3668C46.6569 81.4923 45.0421 78.8639 42.4821 77.556C45.7727 74.3441 45.8367 69.0727 42.6248 65.782C40.6469 63.7556 37.7746 62.8733 35.0002 63.44V29.3456L50.3004 21.4012C53.0429 20.2604 54.3413 17.112 53.2004 14.3695ZM25 9.99996C27.7615 9.99996 30 12.2385 30 15C30 17.7614 27.7615 20 25 20C22.2398 19.997 20.0029 17.7602 20 15C20 12.2385 22.2385 9.99996 25 9.99996ZM10 66.6048C12.7615 66.6048 15 68.8433 15 71.6048C15 74.3662 12.7615 76.6048 10 76.6048C7.23854 76.6048 5 74.3662 5 71.6048C5.00292 68.8445 7.23979 66.6079 10 66.6048ZM16.6667 96.6666H3.33333V84.3668C3.33667 81.9562 5.29021 80.0029 7.70104 80H12.299C14.7096 80.0029 16.6633 81.9562 16.6667 84.3668V96.6666ZM43.3333 84.3668V96.6666H30V84.3668C30.0033 81.9562 31.9569 80.0029 34.3677 80H38.9656C41.3765 80.0029 43.33 81.9562 43.3333 84.3668ZM36.6667 66.6048C39.4269 66.6077 41.6638 68.8445 41.6667 71.6048C41.6667 74.3662 39.4281 76.6048 36.6667 76.6048C33.9052 76.6048 31.6667 74.3662 31.6667 71.6048C31.6667 68.8433 33.9052 66.6048 36.6667 66.6048ZM50.1506 17.15C49.9275 17.7225 49.4694 18.1718 48.8925 18.3837L32.566 26.8537C32.0135 27.1404 31.6667 27.711 31.6667 28.3333V64.9808C28.5448 67.2891 27.4633 71.4668 29.0733 75H26.6667V46.6666H23.3333V75H17.5933C18.0675 73.952 18.3173 72.8166 18.3271 71.6666H18.3333V30C18.3331 29.0793 17.5867 28.3333 16.6663 28.3335C15.9385 28.3337 15.295 28.806 15.0767 29.5004L10.1 45.3368C9.72292 46.3768 8.57396 46.9143 7.53396 46.537C7.46104 46.5106 7.38958 46.48 7.32 46.4452C6.35854 45.9483 5.95042 44.7883 6.38917 43.7987L10.8381 28.4635C12.0379 25.3823 14.9998 23.3477 18.3065 23.3333H30.1075C30.3746 23.3337 30.6379 23.2693 30.875 23.1462L47.44 14.5477C48.4338 14.1331 49.5792 14.5573 50.0629 15.5193C50.3194 16.0264 50.3513 16.6181 50.1506 17.15Z" fill="#5A5252"/>
<path d="M69.1485 77.5561C72.445 74.3444 72.5138 69.0684 69.3021 65.7719C66.0904 62.4755 60.8144 62.4067 57.5179 65.6184C54.2215 68.8301 54.1527 74.1061 57.3644 77.4026C57.415 77.4544 57.4663 77.5057 57.5181 77.5561C54.9583 78.864 53.3433 81.4924 53.3333 84.3669V98.3334C53.3331 99.2536 54.079 99.9999 54.9992 100C54.9994 100 54.9998 100 55 100H71.6667C72.5869 100 73.3331 99.2544 73.3333 98.3342C73.3333 98.334 73.3333 98.3336 73.3333 98.3334V84.3669C73.3233 81.4924 71.7085 78.864 69.1485 77.5561ZM63.3333 66.6049C66.0948 66.6049 68.3333 68.8434 68.3333 71.6049C68.3333 74.3663 66.0948 76.6049 63.3333 76.6049C60.5719 76.6049 58.3333 74.3663 58.3333 71.6049C58.3363 68.8446 60.5731 66.608 63.3333 66.6049ZM70 96.6667H56.6667V84.3669C56.67 81.9563 58.6235 80.003 61.0344 80.0001H65.6323C68.0429 80.003 69.9967 81.9563 70 84.3669V96.6667Z" fill="#5A5252"/>
<path d="M95.8152 77.5561C99.1117 74.3444 99.1804 69.0684 95.9687 65.7719C92.7571 62.4755 87.481 62.4067 84.1846 65.6184C80.8881 68.8301 80.8194 74.1061 84.031 77.4026C84.0817 77.4544 84.1329 77.5057 84.1848 77.5561C81.625 78.864 80.01 81.4924 80 84.3669V98.3334C79.9998 99.2536 80.7456 99.9999 81.6658 100C81.666 100 81.6665 100 81.6667 100H98.3333C99.2535 100 99.9998 99.2544 100 98.3342C100 98.334 100 98.3336 100 98.3334V84.3669C99.99 81.4924 98.3752 78.864 95.8152 77.5561ZM90 66.6049C92.7615 66.6049 95 68.8434 95 71.6049C95 74.3663 92.7615 76.6049 90 76.6049C87.2385 76.6049 85 74.3663 85 71.6049C85.0029 68.8446 87.2398 66.608 90 66.6049ZM96.6667 96.6667H83.3333V84.3669C83.3367 81.9563 85.2902 80.003 87.701 80.0001H92.299C94.7096 80.003 96.6633 81.9563 96.6667 84.3669V96.6667Z" fill="#5A5252"/>
</g>
<defs>
<clipPath id="clip0_11_100">
<rect width="100" height="100" fill="white"/>
</clipPath>
</defs>
</svg>
