<svg width="1440" height="632" viewBox="0 0 1440 632" fill="none" xmlns="http://www.w3.org/2000/svg">
<rect y="283" width="1440" height="354" fill="#630D08"/>
<circle cx="883" cy="198" r="198" fill="white" fill-opacity="0.3"/>
<circle cx="883" cy="198" r="198" fill="white" fill-opacity="0.3"/>
<circle cx="1538" cy="460" r="198" fill="white" fill-opacity="0.3"/>
<circle cy="396" r="198" fill="white" fill-opacity="0.3"/>
<g clip-path="url(#clip0_12_82)">
<path d="M64.4186 589.805C64.2936 589.825 64.1682 589.844 64.0423 589.861C64.1682 589.844 64.2936 589.825 64.4186 589.805Z" fill="white"/>
<path d="M64.7186 589.753C64.6589 589.764 64.5992 589.774 64.5394 589.785C64.5992 589.774 64.6589 589.764 64.7186 589.753Z" fill="white"/>
<path d="M63.7072 589.903C63.561 589.919 63.4138 589.934 63.2662 589.946C63.4138 589.934 63.561 589.919 63.7072 589.903Z" fill="white"/>
<path d="M63.9954 589.867C63.9252 589.877 63.8544 589.886 63.7839 589.894C63.8544 589.886 63.9252 589.877 63.9954 589.867Z" fill="white"/>
<path d="M65.127 589.672C65.0744 589.684 65.0215 589.695 64.9686 589.706C65.0215 589.695 65.0744 589.684 65.127 589.672Z" fill="white"/>
<path d="M66.1405 589.421C66.0979 589.433 66.0553 589.444 66.0128 589.456C66.0553 589.444 66.0979 589.433 66.1405 589.421Z" fill="white"/>
<path d="M65.834 589.504C65.7878 589.517 65.7413 589.529 65.6948 589.541C65.7413 589.529 65.7878 589.517 65.834 589.504Z" fill="white"/>
<path d="M65.433 589.605C65.384 589.616 65.3346 589.627 65.2852 589.638C65.3346 589.627 65.384 589.616 65.433 589.605Z" fill="white"/>
<path d="M63.2614 589.947C63.1824 589.953 63.1034 589.959 63.0242 589.965C63.1034 589.959 63.1824 589.953 63.2614 589.947Z" fill="white"/>
<path d="M77 575C77 566.717 70.283 560 62 560C53.717 560 47 566.717 47 575C47 583.283 53.717 590 62 590C62.0881 590 62.1758 589.998 62.2637 589.997V578.32H59.041V574.564H62.2637V571.8C62.2637 568.595 64.2204 566.85 67.0796 566.85C68.4487 566.85 69.6257 566.953 69.9688 566.998V570.348H67.9972C66.4417 570.348 66.1405 571.087 66.1405 572.172V574.564H69.8598L69.375 578.32H66.1405V589.42C72.4102 587.623 77 581.847 77 575Z" fill="white"/>
<path d="M62.9911 589.967C62.835 589.977 62.6782 589.985 62.5209 589.99C62.6782 589.985 62.835 589.977 62.9911 589.967Z" fill="white"/>
<path d="M62.5129 589.99C62.4301 589.993 62.347 589.995 62.2639 589.997C62.347 589.995 62.4301 589.993 62.5129 589.99Z" fill="white"/>
</g>
<path d="M139.725 566.675C138.911 565.227 138.028 564.961 136.23 564.86C134.434 564.738 129.917 564.688 126.004 564.688C122.083 564.688 117.564 564.738 115.77 564.858C113.976 564.961 113.091 565.226 112.269 566.675C111.431 568.121 111 570.611 111 574.994C111 574.998 111 575 111 575C111 575.004 111 575.006 111 575.006V575.009C111 579.374 111.431 581.883 112.269 583.314C113.091 584.761 113.974 585.024 115.768 585.146C117.564 585.251 122.083 585.312 126.004 585.312C129.917 585.312 134.434 585.251 136.232 585.147C138.03 585.026 138.913 584.763 139.727 583.316C140.573 581.885 141 579.376 141 575.011C141 575.011 141 575.006 141 575.002C141 575.002 141 574.998 141 574.996C141 570.611 140.573 568.121 139.725 566.675ZM122.25 580.625V569.375L131.625 575L122.25 580.625Z" fill="white"/>
<path d="M555.126 407.217H550.659L549.655 410H548.205L552.277 399.336H553.508L557.587 410H556.145L555.126 407.217ZM551.083 406.06H554.709L552.893 401.072L551.083 406.06ZM558.481 405.972C558.481 404.756 558.769 403.779 559.345 403.042C559.921 402.3 560.676 401.929 561.608 401.929C562.536 401.929 563.271 402.246 563.813 402.881V398.75H565.168V410H563.923L563.857 409.15C563.315 409.814 562.561 410.146 561.594 410.146C560.676 410.146 559.926 409.771 559.345 409.019C558.769 408.267 558.481 407.285 558.481 406.074V405.972ZM559.836 406.125C559.836 407.024 560.021 407.727 560.393 408.235C560.764 408.743 561.276 408.997 561.931 408.997C562.79 408.997 563.417 408.611 563.813 407.839V404.199C563.408 403.452 562.785 403.079 561.945 403.079C561.281 403.079 560.764 403.335 560.393 403.848C560.021 404.36 559.836 405.12 559.836 406.125ZM568.552 402.075L568.588 402.954C569.169 402.271 569.953 401.929 570.939 401.929C572.048 401.929 572.802 402.354 573.203 403.203C573.466 402.822 573.808 402.515 574.228 402.28C574.653 402.046 575.153 401.929 575.729 401.929C577.468 401.929 578.352 402.849 578.381 404.69V410H577.026V404.771C577.026 404.204 576.896 403.782 576.638 403.503C576.379 403.22 575.944 403.079 575.334 403.079C574.831 403.079 574.414 403.23 574.082 403.533C573.75 403.831 573.557 404.233 573.503 404.741V410H572.141V404.807C572.141 403.655 571.577 403.079 570.449 403.079C569.56 403.079 568.952 403.457 568.625 404.214V410H567.27V402.075H568.552ZM585.046 407.898C585.046 407.532 584.907 407.249 584.628 407.048C584.355 406.843 583.874 406.667 583.186 406.521C582.502 406.375 581.958 406.199 581.552 405.994C581.152 405.789 580.854 405.544 580.659 405.261C580.468 404.978 580.373 404.641 580.373 404.25C580.373 403.601 580.646 403.052 581.193 402.603C581.745 402.153 582.448 401.929 583.303 401.929C584.201 401.929 584.929 402.161 585.485 402.625C586.047 403.088 586.328 403.682 586.328 404.404H584.965C584.965 404.033 584.807 403.713 584.489 403.445C584.177 403.176 583.781 403.042 583.303 403.042C582.81 403.042 582.424 403.149 582.146 403.364C581.867 403.579 581.728 403.86 581.728 404.207C581.728 404.534 581.857 404.78 582.116 404.946C582.375 405.112 582.841 405.271 583.515 405.422C584.194 405.574 584.743 405.754 585.163 405.964C585.583 406.174 585.893 406.428 586.093 406.726C586.298 407.019 586.401 407.378 586.401 407.803C586.401 408.511 586.118 409.08 585.551 409.509C584.985 409.934 584.25 410.146 583.347 410.146C582.712 410.146 582.15 410.034 581.662 409.81C581.174 409.585 580.791 409.272 580.512 408.872C580.239 408.467 580.102 408.03 580.102 407.561H581.457C581.481 408.015 581.662 408.376 581.999 408.645C582.341 408.909 582.79 409.041 583.347 409.041C583.859 409.041 584.27 408.938 584.577 408.733C584.89 408.523 585.046 408.245 585.046 407.898ZM592.78 407.898C592.78 407.532 592.641 407.249 592.363 407.048C592.089 406.843 591.608 406.667 590.92 406.521C590.236 406.375 589.692 406.199 589.287 405.994C588.886 405.789 588.588 405.544 588.393 405.261C588.203 404.978 588.107 404.641 588.107 404.25C588.107 403.601 588.381 403.052 588.928 402.603C589.479 402.153 590.183 401.929 591.037 401.929C591.936 401.929 592.663 402.161 593.22 402.625C593.781 403.088 594.062 403.682 594.062 404.404H592.7C592.7 404.033 592.541 403.713 592.224 403.445C591.911 403.176 591.516 403.042 591.037 403.042C590.544 403.042 590.158 403.149 589.88 403.364C589.602 403.579 589.462 403.86 589.462 404.207C589.462 404.534 589.592 404.78 589.851 404.946C590.109 405.112 590.576 405.271 591.25 405.422C591.928 405.574 592.478 405.754 592.897 405.964C593.317 406.174 593.627 406.428 593.828 406.726C594.033 407.019 594.135 407.378 594.135 407.803C594.135 408.511 593.852 409.08 593.286 409.509C592.719 409.934 591.984 410.146 591.081 410.146C590.446 410.146 589.885 410.034 589.396 409.81C588.908 409.585 588.525 409.272 588.247 408.872C587.973 408.467 587.836 408.03 587.836 407.561H589.191C589.216 408.015 589.396 408.376 589.733 408.645C590.075 408.909 590.524 409.041 591.081 409.041C591.594 409.041 592.004 408.938 592.312 408.733C592.624 408.523 592.78 408.245 592.78 407.898ZM597.373 410H596.018V402.075H597.373V410ZM595.908 399.973C595.908 399.753 595.974 399.568 596.105 399.417C596.242 399.265 596.442 399.189 596.706 399.189C596.97 399.189 597.17 399.265 597.307 399.417C597.443 399.568 597.512 399.753 597.512 399.973C597.512 400.193 597.443 400.376 597.307 400.522C597.17 400.669 596.97 400.742 596.706 400.742C596.442 400.742 596.242 400.669 596.105 400.522C595.974 400.376 595.908 400.193 595.908 399.973ZM599.189 405.964C599.189 405.188 599.34 404.49 599.643 403.87C599.951 403.25 600.375 402.771 600.917 402.434C601.464 402.097 602.087 401.929 602.785 401.929C603.864 401.929 604.736 402.302 605.4 403.049C606.069 403.796 606.403 404.79 606.403 406.03V406.125C606.403 406.897 606.254 407.59 605.957 408.206C605.664 408.816 605.241 409.292 604.689 409.634C604.143 409.976 603.513 410.146 602.8 410.146C601.726 410.146 600.854 409.773 600.185 409.026C599.521 408.279 599.189 407.29 599.189 406.06V405.964ZM600.551 406.125C600.551 407.004 600.754 407.71 601.159 408.242C601.569 408.774 602.116 409.041 602.8 409.041C603.488 409.041 604.035 408.772 604.44 408.235C604.846 407.693 605.048 406.936 605.048 405.964C605.048 405.095 604.841 404.392 604.426 403.855C604.016 403.313 603.469 403.042 602.785 403.042C602.116 403.042 601.577 403.308 601.167 403.84C600.756 404.373 600.551 405.134 600.551 406.125ZM609.384 402.075L609.428 403.071C610.034 402.31 610.825 401.929 611.801 401.929C613.476 401.929 614.321 402.874 614.335 404.763V410H612.98V404.756C612.976 404.185 612.844 403.762 612.585 403.489C612.331 403.215 611.933 403.079 611.391 403.079C610.952 403.079 610.566 403.196 610.234 403.43C609.902 403.665 609.643 403.972 609.458 404.353V410H608.103V402.075H609.384Z" fill="white"/>
<path d="M770.126 407.217H765.659L764.655 410H763.205L767.277 399.336H768.508L772.587 410H771.145L770.126 407.217ZM766.083 406.06H769.709L767.893 401.072L766.083 406.06ZM773.481 405.972C773.481 404.756 773.769 403.779 774.345 403.042C774.921 402.3 775.676 401.929 776.608 401.929C777.536 401.929 778.271 402.246 778.813 402.881V398.75H780.168V410H778.923L778.857 409.15C778.315 409.814 777.561 410.146 776.594 410.146C775.676 410.146 774.926 409.771 774.345 409.019C773.769 408.267 773.481 407.285 773.481 406.074V405.972ZM774.836 406.125C774.836 407.024 775.021 407.727 775.393 408.235C775.764 408.743 776.276 408.997 776.931 408.997C777.79 408.997 778.417 408.611 778.813 407.839V404.199C778.408 403.452 777.785 403.079 776.945 403.079C776.281 403.079 775.764 403.335 775.393 403.848C775.021 404.36 774.836 405.12 774.836 406.125ZM783.552 402.075L783.588 402.954C784.169 402.271 784.953 401.929 785.939 401.929C787.048 401.929 787.802 402.354 788.203 403.203C788.466 402.822 788.808 402.515 789.228 402.28C789.653 402.046 790.153 401.929 790.729 401.929C792.468 401.929 793.352 402.849 793.381 404.69V410H792.026V404.771C792.026 404.204 791.896 403.782 791.638 403.503C791.379 403.22 790.944 403.079 790.334 403.079C789.831 403.079 789.414 403.23 789.082 403.533C788.75 403.831 788.557 404.233 788.503 404.741V410H787.141V404.807C787.141 403.655 786.577 403.079 785.449 403.079C784.56 403.079 783.952 403.457 783.625 404.214V410H782.27V402.075H783.552ZM800.046 407.898C800.046 407.532 799.907 407.249 799.628 407.048C799.355 406.843 798.874 406.667 798.186 406.521C797.502 406.375 796.958 406.199 796.552 405.994C796.152 405.789 795.854 405.544 795.659 405.261C795.468 404.978 795.373 404.641 795.373 404.25C795.373 403.601 795.646 403.052 796.193 402.603C796.745 402.153 797.448 401.929 798.303 401.929C799.201 401.929 799.929 402.161 800.485 402.625C801.047 403.088 801.328 403.682 801.328 404.404H799.965C799.965 404.033 799.807 403.713 799.489 403.445C799.177 403.176 798.781 403.042 798.303 403.042C797.81 403.042 797.424 403.149 797.146 403.364C796.867 403.579 796.728 403.86 796.728 404.207C796.728 404.534 796.857 404.78 797.116 404.946C797.375 405.112 797.841 405.271 798.515 405.422C799.194 405.574 799.743 405.754 800.163 405.964C800.583 406.174 800.893 406.428 801.093 406.726C801.298 407.019 801.401 407.378 801.401 407.803C801.401 408.511 801.118 409.08 800.551 409.509C799.985 409.934 799.25 410.146 798.347 410.146C797.712 410.146 797.15 410.034 796.662 409.81C796.174 409.585 795.791 409.272 795.512 408.872C795.239 408.467 795.102 408.03 795.102 407.561H796.457C796.481 408.015 796.662 408.376 796.999 408.645C797.341 408.909 797.79 409.041 798.347 409.041C798.859 409.041 799.27 408.938 799.577 408.733C799.89 408.523 800.046 408.245 800.046 407.898ZM807.78 407.898C807.78 407.532 807.641 407.249 807.363 407.048C807.089 406.843 806.608 406.667 805.92 406.521C805.236 406.375 804.692 406.199 804.287 405.994C803.886 405.789 803.588 405.544 803.393 405.261C803.203 404.978 803.107 404.641 803.107 404.25C803.107 403.601 803.381 403.052 803.928 402.603C804.479 402.153 805.183 401.929 806.037 401.929C806.936 401.929 807.663 402.161 808.22 402.625C808.781 403.088 809.062 403.682 809.062 404.404H807.7C807.7 404.033 807.541 403.713 807.224 403.445C806.911 403.176 806.516 403.042 806.037 403.042C805.544 403.042 805.158 403.149 804.88 403.364C804.602 403.579 804.462 403.86 804.462 404.207C804.462 404.534 804.592 404.78 804.851 404.946C805.109 405.112 805.576 405.271 806.25 405.422C806.928 405.574 807.478 405.754 807.897 405.964C808.317 406.174 808.627 406.428 808.828 406.726C809.033 407.019 809.135 407.378 809.135 407.803C809.135 408.511 808.852 409.08 808.286 409.509C807.719 409.934 806.984 410.146 806.081 410.146C805.446 410.146 804.885 410.034 804.396 409.81C803.908 409.585 803.525 409.272 803.247 408.872C802.973 408.467 802.836 408.03 802.836 407.561H804.191C804.216 408.015 804.396 408.376 804.733 408.645C805.075 408.909 805.524 409.041 806.081 409.041C806.594 409.041 807.004 408.938 807.312 408.733C807.624 408.523 807.78 408.245 807.78 407.898ZM812.373 410H811.018V402.075H812.373V410ZM810.908 399.973C810.908 399.753 810.974 399.568 811.105 399.417C811.242 399.265 811.442 399.189 811.706 399.189C811.97 399.189 812.17 399.265 812.307 399.417C812.443 399.568 812.512 399.753 812.512 399.973C812.512 400.193 812.443 400.376 812.307 400.522C812.17 400.669 811.97 400.742 811.706 400.742C811.442 400.742 811.242 400.669 811.105 400.522C810.974 400.376 810.908 400.193 810.908 399.973ZM814.189 405.964C814.189 405.188 814.34 404.49 814.643 403.87C814.951 403.25 815.375 402.771 815.917 402.434C816.464 402.097 817.087 401.929 817.785 401.929C818.864 401.929 819.736 402.302 820.4 403.049C821.069 403.796 821.403 404.79 821.403 406.03V406.125C821.403 406.897 821.254 407.59 820.957 408.206C820.664 408.816 820.241 409.292 819.689 409.634C819.143 409.976 818.513 410.146 817.8 410.146C816.726 410.146 815.854 409.773 815.185 409.026C814.521 408.279 814.189 407.29 814.189 406.06V405.964ZM815.551 406.125C815.551 407.004 815.754 407.71 816.159 408.242C816.569 408.774 817.116 409.041 817.8 409.041C818.488 409.041 819.035 408.772 819.44 408.235C819.846 407.693 820.048 406.936 820.048 405.964C820.048 405.095 819.841 404.392 819.426 403.855C819.016 403.313 818.469 403.042 817.785 403.042C817.116 403.042 816.577 403.308 816.167 403.84C815.756 404.373 815.551 405.134 815.551 406.125ZM824.384 402.075L824.428 403.071C825.034 402.31 825.825 401.929 826.801 401.929C828.476 401.929 829.321 402.874 829.335 404.763V410H827.98V404.756C827.976 404.185 827.844 403.762 827.585 403.489C827.331 403.215 826.933 403.079 826.391 403.079C825.952 403.079 825.566 403.196 825.234 403.43C824.902 403.665 824.643 403.972 824.458 404.353V410H823.103V402.075H824.384Z" fill="white"/>
<path d="M985.126 407.217H980.659L979.655 410H978.205L982.277 399.336H983.508L987.587 410H986.145L985.126 407.217ZM981.083 406.06H984.709L982.893 401.072L981.083 406.06ZM988.481 405.972C988.481 404.756 988.769 403.779 989.345 403.042C989.921 402.3 990.676 401.929 991.608 401.929C992.536 401.929 993.271 402.246 993.813 402.881V398.75H995.168V410H993.923L993.857 409.15C993.315 409.814 992.561 410.146 991.594 410.146C990.676 410.146 989.926 409.771 989.345 409.019C988.769 408.267 988.481 407.285 988.481 406.074V405.972ZM989.836 406.125C989.836 407.024 990.021 407.727 990.393 408.235C990.764 408.743 991.276 408.997 991.931 408.997C992.79 408.997 993.417 408.611 993.813 407.839V404.199C993.408 403.452 992.785 403.079 991.945 403.079C991.281 403.079 990.764 403.335 990.393 403.848C990.021 404.36 989.836 405.12 989.836 406.125ZM998.552 402.075L998.588 402.954C999.169 402.271 999.953 401.929 1000.94 401.929C1002.05 401.929 1002.8 402.354 1003.2 403.203C1003.47 402.822 1003.81 402.515 1004.23 402.28C1004.65 402.046 1005.15 401.929 1005.73 401.929C1007.47 401.929 1008.35 402.849 1008.38 404.69V410H1007.03V404.771C1007.03 404.204 1006.9 403.782 1006.64 403.503C1006.38 403.22 1005.94 403.079 1005.33 403.079C1004.83 403.079 1004.41 403.23 1004.08 403.533C1003.75 403.831 1003.56 404.233 1003.5 404.741V410H1002.14V404.807C1002.14 403.655 1001.58 403.079 1000.45 403.079C999.56 403.079 998.952 403.457 998.625 404.214V410H997.27V402.075H998.552ZM1015.05 407.898C1015.05 407.532 1014.91 407.249 1014.63 407.048C1014.35 406.843 1013.87 406.667 1013.19 406.521C1012.5 406.375 1011.96 406.199 1011.55 405.994C1011.15 405.789 1010.85 405.544 1010.66 405.261C1010.47 404.978 1010.37 404.641 1010.37 404.25C1010.37 403.601 1010.65 403.052 1011.19 402.603C1011.75 402.153 1012.45 401.929 1013.3 401.929C1014.2 401.929 1014.93 402.161 1015.49 402.625C1016.05 403.088 1016.33 403.682 1016.33 404.404H1014.97C1014.97 404.033 1014.81 403.713 1014.49 403.445C1014.18 403.176 1013.78 403.042 1013.3 403.042C1012.81 403.042 1012.42 403.149 1012.15 403.364C1011.87 403.579 1011.73 403.86 1011.73 404.207C1011.73 404.534 1011.86 404.78 1012.12 404.946C1012.38 405.112 1012.84 405.271 1013.52 405.422C1014.19 405.574 1014.74 405.754 1015.16 405.964C1015.58 406.174 1015.89 406.428 1016.09 406.726C1016.3 407.019 1016.4 407.378 1016.4 407.803C1016.4 408.511 1016.12 409.08 1015.55 409.509C1014.98 409.934 1014.25 410.146 1013.35 410.146C1012.71 410.146 1012.15 410.034 1011.66 409.81C1011.17 409.585 1010.79 409.272 1010.51 408.872C1010.24 408.467 1010.1 408.03 1010.1 407.561H1011.46C1011.48 408.015 1011.66 408.376 1012 408.645C1012.34 408.909 1012.79 409.041 1013.35 409.041C1013.86 409.041 1014.27 408.938 1014.58 408.733C1014.89 408.523 1015.05 408.245 1015.05 407.898ZM1022.78 407.898C1022.78 407.532 1022.64 407.249 1022.36 407.048C1022.09 406.843 1021.61 406.667 1020.92 406.521C1020.24 406.375 1019.69 406.199 1019.29 405.994C1018.89 405.789 1018.59 405.544 1018.39 405.261C1018.2 404.978 1018.11 404.641 1018.11 404.25C1018.11 403.601 1018.38 403.052 1018.93 402.603C1019.48 402.153 1020.18 401.929 1021.04 401.929C1021.94 401.929 1022.66 402.161 1023.22 402.625C1023.78 403.088 1024.06 403.682 1024.06 404.404H1022.7C1022.7 404.033 1022.54 403.713 1022.22 403.445C1021.91 403.176 1021.52 403.042 1021.04 403.042C1020.54 403.042 1020.16 403.149 1019.88 403.364C1019.6 403.579 1019.46 403.86 1019.46 404.207C1019.46 404.534 1019.59 404.78 1019.85 404.946C1020.11 405.112 1020.58 405.271 1021.25 405.422C1021.93 405.574 1022.48 405.754 1022.9 405.964C1023.32 406.174 1023.63 406.428 1023.83 406.726C1024.03 407.019 1024.14 407.378 1024.14 407.803C1024.14 408.511 1023.85 409.08 1023.29 409.509C1022.72 409.934 1021.98 410.146 1021.08 410.146C1020.45 410.146 1019.88 410.034 1019.4 409.81C1018.91 409.585 1018.52 409.272 1018.25 408.872C1017.97 408.467 1017.84 408.03 1017.84 407.561H1019.19C1019.22 408.015 1019.4 408.376 1019.73 408.645C1020.08 408.909 1020.52 409.041 1021.08 409.041C1021.59 409.041 1022 408.938 1022.31 408.733C1022.62 408.523 1022.78 408.245 1022.78 407.898ZM1027.37 410H1026.02V402.075H1027.37V410ZM1025.91 399.973C1025.91 399.753 1025.97 399.568 1026.11 399.417C1026.24 399.265 1026.44 399.189 1026.71 399.189C1026.97 399.189 1027.17 399.265 1027.31 399.417C1027.44 399.568 1027.51 399.753 1027.51 399.973C1027.51 400.193 1027.44 400.376 1027.31 400.522C1027.17 400.669 1026.97 400.742 1026.71 400.742C1026.44 400.742 1026.24 400.669 1026.11 400.522C1025.97 400.376 1025.91 400.193 1025.91 399.973ZM1029.19 405.964C1029.19 405.188 1029.34 404.49 1029.64 403.87C1029.95 403.25 1030.38 402.771 1030.92 402.434C1031.46 402.097 1032.09 401.929 1032.79 401.929C1033.86 401.929 1034.74 402.302 1035.4 403.049C1036.07 403.796 1036.4 404.79 1036.4 406.03V406.125C1036.4 406.897 1036.25 407.59 1035.96 408.206C1035.66 408.816 1035.24 409.292 1034.69 409.634C1034.14 409.976 1033.51 410.146 1032.8 410.146C1031.73 410.146 1030.85 409.773 1030.19 409.026C1029.52 408.279 1029.19 407.29 1029.19 406.06V405.964ZM1030.55 406.125C1030.55 407.004 1030.75 407.71 1031.16 408.242C1031.57 408.774 1032.12 409.041 1032.8 409.041C1033.49 409.041 1034.04 408.772 1034.44 408.235C1034.85 407.693 1035.05 406.936 1035.05 405.964C1035.05 405.095 1034.84 404.392 1034.43 403.855C1034.02 403.313 1033.47 403.042 1032.79 403.042C1032.12 403.042 1031.58 403.308 1031.17 403.84C1030.76 404.373 1030.55 405.134 1030.55 406.125ZM1039.38 402.075L1039.43 403.071C1040.03 402.31 1040.82 401.929 1041.8 401.929C1043.48 401.929 1044.32 402.874 1044.34 404.763V410H1042.98V404.756C1042.98 404.185 1042.84 403.762 1042.58 403.489C1042.33 403.215 1041.93 403.079 1041.39 403.079C1040.95 403.079 1040.57 403.196 1040.23 403.43C1039.9 403.665 1039.64 403.972 1039.46 404.353V410H1038.1V402.075H1039.38Z" fill="white"/>
<path d="M555.126 445.217H550.659L549.655 448H548.205L552.277 437.336H553.508L557.587 448H556.145L555.126 445.217ZM551.083 444.06H554.709L552.893 439.072L551.083 444.06ZM565.52 444.125C565.52 445.336 565.241 446.311 564.685 447.048C564.128 447.78 563.381 448.146 562.443 448.146C561.442 448.146 560.668 447.792 560.122 447.084L560.056 448H558.811V436.75H560.166V440.947C560.712 440.268 561.467 439.929 562.429 439.929C563.391 439.929 564.145 440.292 564.692 441.02C565.244 441.748 565.52 442.744 565.52 444.008V444.125ZM564.165 443.972C564.165 443.049 563.986 442.336 563.63 441.833C563.273 441.33 562.761 441.079 562.092 441.079C561.198 441.079 560.556 441.494 560.166 442.324V445.751C560.581 446.582 561.228 446.997 562.106 446.997C562.756 446.997 563.261 446.745 563.623 446.242C563.984 445.739 564.165 444.982 564.165 443.972ZM566.875 443.964C566.875 443.188 567.026 442.49 567.329 441.87C567.636 441.25 568.061 440.771 568.603 440.434C569.15 440.097 569.772 439.929 570.471 439.929C571.55 439.929 572.421 440.302 573.085 441.049C573.754 441.796 574.089 442.79 574.089 444.03V444.125C574.089 444.897 573.94 445.59 573.642 446.206C573.349 446.816 572.927 447.292 572.375 447.634C571.828 447.976 571.198 448.146 570.485 448.146C569.411 448.146 568.54 447.773 567.871 447.026C567.207 446.279 566.875 445.29 566.875 444.06V443.964ZM568.237 444.125C568.237 445.004 568.439 445.71 568.845 446.242C569.255 446.774 569.802 447.041 570.485 447.041C571.174 447.041 571.721 446.772 572.126 446.235C572.531 445.693 572.734 444.936 572.734 443.964C572.734 443.095 572.526 442.392 572.111 441.855C571.701 441.313 571.154 441.042 570.471 441.042C569.802 441.042 569.262 441.308 568.852 441.84C568.442 442.373 568.237 443.134 568.237 444.125ZM580.681 447.216C580.153 447.836 579.379 448.146 578.359 448.146C577.514 448.146 576.87 447.902 576.425 447.414C575.986 446.921 575.764 446.193 575.759 445.231V440.075H577.114V445.195C577.114 446.396 577.602 446.997 578.579 446.997C579.614 446.997 580.302 446.611 580.644 445.839V440.075H581.999V448H580.71L580.681 447.216ZM585.903 438.156V440.075H587.382V441.123H585.903V446.037C585.903 446.354 585.969 446.594 586.101 446.755C586.232 446.911 586.457 446.989 586.774 446.989C586.931 446.989 587.146 446.96 587.419 446.901V448C587.062 448.098 586.716 448.146 586.379 448.146C585.773 448.146 585.317 447.963 585.009 447.597C584.702 447.231 584.548 446.711 584.548 446.037V441.123H583.105V440.075H584.548V438.156H585.903ZM597.585 447.216C597.058 447.836 596.284 448.146 595.263 448.146C594.418 448.146 593.774 447.902 593.33 447.414C592.89 446.921 592.668 446.193 592.663 445.231V440.075H594.018V445.195C594.018 446.396 594.506 446.997 595.483 446.997C596.518 446.997 597.207 446.611 597.548 445.839V440.075H598.903V448H597.614L597.585 447.216ZM605.583 445.898C605.583 445.532 605.444 445.249 605.166 445.048C604.892 444.843 604.411 444.667 603.723 444.521C603.039 444.375 602.495 444.199 602.089 443.994C601.689 443.789 601.391 443.544 601.196 443.261C601.005 442.978 600.91 442.641 600.91 442.25C600.91 441.601 601.184 441.052 601.73 440.603C602.282 440.153 602.985 439.929 603.84 439.929C604.738 439.929 605.466 440.161 606.022 440.625C606.584 441.088 606.865 441.682 606.865 442.404H605.502C605.502 442.033 605.344 441.713 605.026 441.445C604.714 441.176 604.318 441.042 603.84 441.042C603.347 441.042 602.961 441.149 602.683 441.364C602.404 441.579 602.265 441.86 602.265 442.207C602.265 442.534 602.395 442.78 602.653 442.946C602.912 443.112 603.378 443.271 604.052 443.422C604.731 443.574 605.28 443.754 605.7 443.964C606.12 444.174 606.43 444.428 606.63 444.726C606.835 445.019 606.938 445.378 606.938 445.803C606.938 446.511 606.655 447.08 606.088 447.509C605.522 447.934 604.787 448.146 603.884 448.146C603.249 448.146 602.688 448.034 602.199 447.81C601.711 447.585 601.328 447.272 601.049 446.872C600.776 446.467 600.639 446.03 600.639 445.561H601.994C602.019 446.015 602.199 446.376 602.536 446.645C602.878 446.909 603.327 447.041 603.884 447.041C604.396 447.041 604.807 446.938 605.114 446.733C605.427 446.523 605.583 446.245 605.583 445.898Z" fill="white"/>
<path d="M770.126 445.217H765.659L764.655 448H763.205L767.277 437.336H768.508L772.587 448H771.145L770.126 445.217ZM766.083 444.06H769.709L767.893 439.072L766.083 444.06ZM780.52 444.125C780.52 445.336 780.241 446.311 779.685 447.048C779.128 447.78 778.381 448.146 777.443 448.146C776.442 448.146 775.668 447.792 775.122 447.084L775.056 448H773.811V436.75H775.166V440.947C775.712 440.268 776.467 439.929 777.429 439.929C778.391 439.929 779.145 440.292 779.692 441.02C780.244 441.748 780.52 442.744 780.52 444.008V444.125ZM779.165 443.972C779.165 443.049 778.986 442.336 778.63 441.833C778.273 441.33 777.761 441.079 777.092 441.079C776.198 441.079 775.556 441.494 775.166 442.324V445.751C775.581 446.582 776.228 446.997 777.106 446.997C777.756 446.997 778.261 446.745 778.623 446.242C778.984 445.739 779.165 444.982 779.165 443.972ZM781.875 443.964C781.875 443.188 782.026 442.49 782.329 441.87C782.636 441.25 783.061 440.771 783.603 440.434C784.15 440.097 784.772 439.929 785.471 439.929C786.55 439.929 787.421 440.302 788.085 441.049C788.754 441.796 789.089 442.79 789.089 444.03V444.125C789.089 444.897 788.94 445.59 788.642 446.206C788.349 446.816 787.927 447.292 787.375 447.634C786.828 447.976 786.198 448.146 785.485 448.146C784.411 448.146 783.54 447.773 782.871 447.026C782.207 446.279 781.875 445.29 781.875 444.06V443.964ZM783.237 444.125C783.237 445.004 783.439 445.71 783.845 446.242C784.255 446.774 784.802 447.041 785.485 447.041C786.174 447.041 786.721 446.772 787.126 446.235C787.531 445.693 787.734 444.936 787.734 443.964C787.734 443.095 787.526 442.392 787.111 441.855C786.701 441.313 786.154 441.042 785.471 441.042C784.802 441.042 784.262 441.308 783.852 441.84C783.442 442.373 783.237 443.134 783.237 444.125ZM795.681 447.216C795.153 447.836 794.379 448.146 793.359 448.146C792.514 448.146 791.87 447.902 791.425 447.414C790.986 446.921 790.764 446.193 790.759 445.231V440.075H792.114V445.195C792.114 446.396 792.602 446.997 793.579 446.997C794.614 446.997 795.302 446.611 795.644 445.839V440.075H796.999V448H795.71L795.681 447.216ZM800.903 438.156V440.075H802.382V441.123H800.903V446.037C800.903 446.354 800.969 446.594 801.101 446.755C801.232 446.911 801.457 446.989 801.774 446.989C801.931 446.989 802.146 446.96 802.419 446.901V448C802.062 448.098 801.716 448.146 801.379 448.146C800.773 448.146 800.317 447.963 800.009 447.597C799.702 447.231 799.548 446.711 799.548 446.037V441.123H798.105V440.075H799.548V438.156H800.903ZM812.585 447.216C812.058 447.836 811.284 448.146 810.263 448.146C809.418 448.146 808.774 447.902 808.33 447.414C807.89 446.921 807.668 446.193 807.663 445.231V440.075H809.018V445.195C809.018 446.396 809.506 446.997 810.483 446.997C811.518 446.997 812.207 446.611 812.548 445.839V440.075H813.903V448H812.614L812.585 447.216ZM820.583 445.898C820.583 445.532 820.444 445.249 820.166 445.048C819.892 444.843 819.411 444.667 818.723 444.521C818.039 444.375 817.495 444.199 817.089 443.994C816.689 443.789 816.391 443.544 816.196 443.261C816.005 442.978 815.91 442.641 815.91 442.25C815.91 441.601 816.184 441.052 816.73 440.603C817.282 440.153 817.985 439.929 818.84 439.929C819.738 439.929 820.466 440.161 821.022 440.625C821.584 441.088 821.865 441.682 821.865 442.404H820.502C820.502 442.033 820.344 441.713 820.026 441.445C819.714 441.176 819.318 441.042 818.84 441.042C818.347 441.042 817.961 441.149 817.683 441.364C817.404 441.579 817.265 441.86 817.265 442.207C817.265 442.534 817.395 442.78 817.653 442.946C817.912 443.112 818.378 443.271 819.052 443.422C819.731 443.574 820.28 443.754 820.7 443.964C821.12 444.174 821.43 444.428 821.63 444.726C821.835 445.019 821.938 445.378 821.938 445.803C821.938 446.511 821.655 447.08 821.088 447.509C820.522 447.934 819.787 448.146 818.884 448.146C818.249 448.146 817.688 448.034 817.199 447.81C816.711 447.585 816.328 447.272 816.049 446.872C815.776 446.467 815.639 446.03 815.639 445.561H816.994C817.019 446.015 817.199 446.376 817.536 446.645C817.878 446.909 818.327 447.041 818.884 447.041C819.396 447.041 819.807 446.938 820.114 446.733C820.427 446.523 820.583 446.245 820.583 445.898Z" fill="white"/>
<path d="M985.126 445.217H980.659L979.655 448H978.205L982.277 437.336H983.508L987.587 448H986.145L985.126 445.217ZM981.083 444.06H984.709L982.893 439.072L981.083 444.06ZM995.52 444.125C995.52 445.336 995.241 446.311 994.685 447.048C994.128 447.78 993.381 448.146 992.443 448.146C991.442 448.146 990.668 447.792 990.122 447.084L990.056 448H988.811V436.75H990.166V440.947C990.712 440.268 991.467 439.929 992.429 439.929C993.391 439.929 994.145 440.292 994.692 441.02C995.244 441.748 995.52 442.744 995.52 444.008V444.125ZM994.165 443.972C994.165 443.049 993.986 442.336 993.63 441.833C993.273 441.33 992.761 441.079 992.092 441.079C991.198 441.079 990.556 441.494 990.166 442.324V445.751C990.581 446.582 991.228 446.997 992.106 446.997C992.756 446.997 993.261 446.745 993.623 446.242C993.984 445.739 994.165 444.982 994.165 443.972ZM996.875 443.964C996.875 443.188 997.026 442.49 997.329 441.87C997.636 441.25 998.061 440.771 998.603 440.434C999.15 440.097 999.772 439.929 1000.47 439.929C1001.55 439.929 1002.42 440.302 1003.09 441.049C1003.75 441.796 1004.09 442.79 1004.09 444.03V444.125C1004.09 444.897 1003.94 445.59 1003.64 446.206C1003.35 446.816 1002.93 447.292 1002.38 447.634C1001.83 447.976 1001.2 448.146 1000.49 448.146C999.411 448.146 998.54 447.773 997.871 447.026C997.207 446.279 996.875 445.29 996.875 444.06V443.964ZM998.237 444.125C998.237 445.004 998.439 445.71 998.845 446.242C999.255 446.774 999.802 447.041 1000.49 447.041C1001.17 447.041 1001.72 446.772 1002.13 446.235C1002.53 445.693 1002.73 444.936 1002.73 443.964C1002.73 443.095 1002.53 442.392 1002.11 441.855C1001.7 441.313 1001.15 441.042 1000.47 441.042C999.802 441.042 999.262 441.308 998.852 441.84C998.442 442.373 998.237 443.134 998.237 444.125ZM1010.68 447.216C1010.15 447.836 1009.38 448.146 1008.36 448.146C1007.51 448.146 1006.87 447.902 1006.43 447.414C1005.99 446.921 1005.76 446.193 1005.76 445.231V440.075H1007.11V445.195C1007.11 446.396 1007.6 446.997 1008.58 446.997C1009.61 446.997 1010.3 446.611 1010.64 445.839V440.075H1012V448H1010.71L1010.68 447.216ZM1015.9 438.156V440.075H1017.38V441.123H1015.9V446.037C1015.9 446.354 1015.97 446.594 1016.1 446.755C1016.23 446.911 1016.46 446.989 1016.77 446.989C1016.93 446.989 1017.15 446.96 1017.42 446.901V448C1017.06 448.098 1016.72 448.146 1016.38 448.146C1015.77 448.146 1015.32 447.963 1015.01 447.597C1014.7 447.231 1014.55 446.711 1014.55 446.037V441.123H1013.1V440.075H1014.55V438.156H1015.9ZM1027.58 447.216C1027.06 447.836 1026.28 448.146 1025.26 448.146C1024.42 448.146 1023.77 447.902 1023.33 447.414C1022.89 446.921 1022.67 446.193 1022.66 445.231V440.075H1024.02V445.195C1024.02 446.396 1024.51 446.997 1025.48 446.997C1026.52 446.997 1027.21 446.611 1027.55 445.839V440.075H1028.9V448H1027.61L1027.58 447.216ZM1035.58 445.898C1035.58 445.532 1035.44 445.249 1035.17 445.048C1034.89 444.843 1034.41 444.667 1033.72 444.521C1033.04 444.375 1032.49 444.199 1032.09 443.994C1031.69 443.789 1031.39 443.544 1031.2 443.261C1031.01 442.978 1030.91 442.641 1030.91 442.25C1030.91 441.601 1031.18 441.052 1031.73 440.603C1032.28 440.153 1032.99 439.929 1033.84 439.929C1034.74 439.929 1035.47 440.161 1036.02 440.625C1036.58 441.088 1036.86 441.682 1036.86 442.404H1035.5C1035.5 442.033 1035.34 441.713 1035.03 441.445C1034.71 441.176 1034.32 441.042 1033.84 441.042C1033.35 441.042 1032.96 441.149 1032.68 441.364C1032.4 441.579 1032.27 441.86 1032.27 442.207C1032.27 442.534 1032.39 442.78 1032.65 442.946C1032.91 443.112 1033.38 443.271 1034.05 443.422C1034.73 443.574 1035.28 443.754 1035.7 443.964C1036.12 444.174 1036.43 444.428 1036.63 444.726C1036.84 445.019 1036.94 445.378 1036.94 445.803C1036.94 446.511 1036.65 447.08 1036.09 447.509C1035.52 447.934 1034.79 448.146 1033.88 448.146C1033.25 448.146 1032.69 448.034 1032.2 447.81C1031.71 447.585 1031.33 447.272 1031.05 446.872C1030.78 446.467 1030.64 446.03 1030.64 445.561H1031.99C1032.02 446.015 1032.2 446.376 1032.54 446.645C1032.88 446.909 1033.33 447.041 1033.88 447.041C1034.4 447.041 1034.81 446.938 1035.11 446.733C1035.43 446.523 1035.58 446.245 1035.58 445.898Z" fill="white"/>
<path d="M550.644 481.825V486H549.238V475.336H553.171C554.338 475.336 555.251 475.634 555.91 476.229C556.574 476.825 556.906 477.614 556.906 478.595C556.906 479.63 556.582 480.429 555.932 480.99C555.288 481.547 554.362 481.825 553.156 481.825H550.644ZM550.644 480.675H553.171C553.923 480.675 554.499 480.5 554.899 480.148C555.3 479.792 555.5 479.279 555.5 478.61C555.5 477.975 555.3 477.467 554.899 477.086C554.499 476.706 553.95 476.508 553.251 476.493H550.644V480.675ZM558.027 481.964C558.027 481.188 558.178 480.49 558.481 479.87C558.789 479.25 559.213 478.771 559.755 478.434C560.302 478.097 560.925 477.929 561.623 477.929C562.702 477.929 563.574 478.302 564.238 479.049C564.907 479.796 565.241 480.79 565.241 482.03V482.125C565.241 482.897 565.092 483.59 564.794 484.206C564.501 484.816 564.079 485.292 563.527 485.634C562.98 485.976 562.351 486.146 561.638 486.146C560.563 486.146 559.692 485.773 559.023 485.026C558.359 484.279 558.027 483.29 558.027 482.06V481.964ZM559.389 482.125C559.389 483.004 559.592 483.71 559.997 484.242C560.407 484.774 560.954 485.041 561.638 485.041C562.326 485.041 562.873 484.772 563.278 484.235C563.684 483.693 563.886 482.936 563.886 481.964C563.886 481.095 563.679 480.392 563.264 479.855C562.854 479.313 562.307 479.042 561.623 479.042C560.954 479.042 560.415 479.308 560.004 479.84C559.594 480.373 559.389 481.134 559.389 482.125ZM570.771 479.291C570.566 479.257 570.344 479.24 570.104 479.24C569.216 479.24 568.613 479.618 568.295 480.375V486H566.94V478.075H568.259L568.281 478.991C568.725 478.283 569.355 477.929 570.17 477.929C570.434 477.929 570.634 477.963 570.771 478.031V479.291ZM574.228 476.156V478.075H575.708V479.123H574.228V484.037C574.228 484.354 574.294 484.594 574.426 484.755C574.558 484.911 574.782 484.989 575.1 484.989C575.256 484.989 575.471 484.96 575.744 484.901V486C575.388 486.098 575.041 486.146 574.704 486.146C574.099 486.146 573.642 485.963 573.334 485.597C573.027 485.231 572.873 484.711 572.873 484.037V479.123H571.43V478.075H572.873V476.156H574.228ZM582.189 486C582.111 485.844 582.048 485.565 581.999 485.165C581.369 485.819 580.617 486.146 579.743 486.146C578.962 486.146 578.32 485.927 577.817 485.487C577.319 485.043 577.07 484.481 577.07 483.803C577.07 482.978 577.382 482.338 578.007 481.884C578.637 481.425 579.521 481.195 580.659 481.195H581.977V480.573C581.977 480.099 581.835 479.723 581.552 479.445C581.269 479.162 580.852 479.02 580.3 479.02C579.816 479.02 579.411 479.142 579.084 479.386C578.757 479.63 578.593 479.926 578.593 480.272H577.231C577.231 479.877 577.37 479.496 577.648 479.13C577.932 478.759 578.312 478.466 578.791 478.251C579.274 478.036 579.804 477.929 580.38 477.929C581.293 477.929 582.009 478.158 582.526 478.617C583.044 479.071 583.312 479.699 583.332 480.5V484.147C583.332 484.875 583.425 485.453 583.61 485.883V486H582.189ZM579.941 484.967C580.366 484.967 580.769 484.857 581.149 484.638C581.53 484.418 581.806 484.132 581.977 483.781V482.155H580.915C579.255 482.155 578.425 482.641 578.425 483.612C578.425 484.037 578.566 484.369 578.85 484.608C579.133 484.848 579.497 484.967 579.941 484.967ZM586.928 486H585.573V474.75H586.928V486Z" fill="white"/>
<path d="M765.644 481.825V486H764.238V475.336H768.171C769.338 475.336 770.251 475.634 770.91 476.229C771.574 476.825 771.906 477.614 771.906 478.595C771.906 479.63 771.582 480.429 770.932 480.99C770.288 481.547 769.362 481.825 768.156 481.825H765.644ZM765.644 480.675H768.171C768.923 480.675 769.499 480.5 769.899 480.148C770.3 479.792 770.5 479.279 770.5 478.61C770.5 477.975 770.3 477.467 769.899 477.086C769.499 476.706 768.95 476.508 768.251 476.493H765.644V480.675ZM773.027 481.964C773.027 481.188 773.178 480.49 773.481 479.87C773.789 479.25 774.213 478.771 774.755 478.434C775.302 478.097 775.925 477.929 776.623 477.929C777.702 477.929 778.574 478.302 779.238 479.049C779.907 479.796 780.241 480.79 780.241 482.03V482.125C780.241 482.897 780.092 483.59 779.794 484.206C779.501 484.816 779.079 485.292 778.527 485.634C777.98 485.976 777.351 486.146 776.638 486.146C775.563 486.146 774.692 485.773 774.023 485.026C773.359 484.279 773.027 483.29 773.027 482.06V481.964ZM774.389 482.125C774.389 483.004 774.592 483.71 774.997 484.242C775.407 484.774 775.954 485.041 776.638 485.041C777.326 485.041 777.873 484.772 778.278 484.235C778.684 483.693 778.886 482.936 778.886 481.964C778.886 481.095 778.679 480.392 778.264 479.855C777.854 479.313 777.307 479.042 776.623 479.042C775.954 479.042 775.415 479.308 775.004 479.84C774.594 480.373 774.389 481.134 774.389 482.125ZM785.771 479.291C785.566 479.257 785.344 479.24 785.104 479.24C784.216 479.24 783.613 479.618 783.295 480.375V486H781.94V478.075H783.259L783.281 478.991C783.725 478.283 784.355 477.929 785.17 477.929C785.434 477.929 785.634 477.963 785.771 478.031V479.291ZM789.228 476.156V478.075H790.708V479.123H789.228V484.037C789.228 484.354 789.294 484.594 789.426 484.755C789.558 484.911 789.782 484.989 790.1 484.989C790.256 484.989 790.471 484.96 790.744 484.901V486C790.388 486.098 790.041 486.146 789.704 486.146C789.099 486.146 788.642 485.963 788.334 485.597C788.027 485.231 787.873 484.711 787.873 484.037V479.123H786.43V478.075H787.873V476.156H789.228ZM797.189 486C797.111 485.844 797.048 485.565 796.999 485.165C796.369 485.819 795.617 486.146 794.743 486.146C793.962 486.146 793.32 485.927 792.817 485.487C792.319 485.043 792.07 484.481 792.07 483.803C792.07 482.978 792.382 482.338 793.007 481.884C793.637 481.425 794.521 481.195 795.659 481.195H796.977V480.573C796.977 480.099 796.835 479.723 796.552 479.445C796.269 479.162 795.852 479.02 795.3 479.02C794.816 479.02 794.411 479.142 794.084 479.386C793.757 479.63 793.593 479.926 793.593 480.272H792.231C792.231 479.877 792.37 479.496 792.648 479.13C792.932 478.759 793.312 478.466 793.791 478.251C794.274 478.036 794.804 477.929 795.38 477.929C796.293 477.929 797.009 478.158 797.526 478.617C798.044 479.071 798.312 479.699 798.332 480.5V484.147C798.332 484.875 798.425 485.453 798.61 485.883V486H797.189ZM794.941 484.967C795.366 484.967 795.769 484.857 796.149 484.638C796.53 484.418 796.806 484.132 796.977 483.781V482.155H795.915C794.255 482.155 793.425 482.641 793.425 483.612C793.425 484.037 793.566 484.369 793.85 484.608C794.133 484.848 794.497 484.967 794.941 484.967ZM801.928 486H800.573V474.75H801.928V486Z" fill="white"/>
<path d="M980.644 481.825V486H979.238V475.336H983.171C984.338 475.336 985.251 475.634 985.91 476.229C986.574 476.825 986.906 477.614 986.906 478.595C986.906 479.63 986.582 480.429 985.932 480.99C985.288 481.547 984.362 481.825 983.156 481.825H980.644ZM980.644 480.675H983.171C983.923 480.675 984.499 480.5 984.899 480.148C985.3 479.792 985.5 479.279 985.5 478.61C985.5 477.975 985.3 477.467 984.899 477.086C984.499 476.706 983.95 476.508 983.251 476.493H980.644V480.675ZM988.027 481.964C988.027 481.188 988.178 480.49 988.481 479.87C988.789 479.25 989.213 478.771 989.755 478.434C990.302 478.097 990.925 477.929 991.623 477.929C992.702 477.929 993.574 478.302 994.238 479.049C994.907 479.796 995.241 480.79 995.241 482.03V482.125C995.241 482.897 995.092 483.59 994.794 484.206C994.501 484.816 994.079 485.292 993.527 485.634C992.98 485.976 992.351 486.146 991.638 486.146C990.563 486.146 989.692 485.773 989.023 485.026C988.359 484.279 988.027 483.29 988.027 482.06V481.964ZM989.389 482.125C989.389 483.004 989.592 483.71 989.997 484.242C990.407 484.774 990.954 485.041 991.638 485.041C992.326 485.041 992.873 484.772 993.278 484.235C993.684 483.693 993.886 482.936 993.886 481.964C993.886 481.095 993.679 480.392 993.264 479.855C992.854 479.313 992.307 479.042 991.623 479.042C990.954 479.042 990.415 479.308 990.004 479.84C989.594 480.373 989.389 481.134 989.389 482.125ZM1000.77 479.291C1000.57 479.257 1000.34 479.24 1000.1 479.24C999.216 479.24 998.613 479.618 998.295 480.375V486H996.94V478.075H998.259L998.281 478.991C998.725 478.283 999.355 477.929 1000.17 477.929C1000.43 477.929 1000.63 477.963 1000.77 478.031V479.291ZM1004.23 476.156V478.075H1005.71V479.123H1004.23V484.037C1004.23 484.354 1004.29 484.594 1004.43 484.755C1004.56 484.911 1004.78 484.989 1005.1 484.989C1005.26 484.989 1005.47 484.96 1005.74 484.901V486C1005.39 486.098 1005.04 486.146 1004.7 486.146C1004.1 486.146 1003.64 485.963 1003.33 485.597C1003.03 485.231 1002.87 484.711 1002.87 484.037V479.123H1001.43V478.075H1002.87V476.156H1004.23ZM1012.19 486C1012.11 485.844 1012.05 485.565 1012 485.165C1011.37 485.819 1010.62 486.146 1009.74 486.146C1008.96 486.146 1008.32 485.927 1007.82 485.487C1007.32 485.043 1007.07 484.481 1007.07 483.803C1007.07 482.978 1007.38 482.338 1008.01 481.884C1008.64 481.425 1009.52 481.195 1010.66 481.195H1011.98V480.573C1011.98 480.099 1011.84 479.723 1011.55 479.445C1011.27 479.162 1010.85 479.02 1010.3 479.02C1009.82 479.02 1009.41 479.142 1009.08 479.386C1008.76 479.63 1008.59 479.926 1008.59 480.272H1007.23C1007.23 479.877 1007.37 479.496 1007.65 479.13C1007.93 478.759 1008.31 478.466 1008.79 478.251C1009.27 478.036 1009.8 477.929 1010.38 477.929C1011.29 477.929 1012.01 478.158 1012.53 478.617C1013.04 479.071 1013.31 479.699 1013.33 480.5V484.147C1013.33 484.875 1013.42 485.453 1013.61 485.883V486H1012.19ZM1009.94 484.967C1010.37 484.967 1010.77 484.857 1011.15 484.638C1011.53 484.418 1011.81 484.132 1011.98 483.781V482.155H1010.92C1009.25 482.155 1008.42 482.641 1008.42 483.612C1008.42 484.037 1008.57 484.369 1008.85 484.608C1009.13 484.848 1009.5 484.967 1009.94 484.967ZM1016.93 486H1015.57V474.75H1016.93V486Z" fill="white"/>
<path d="M555.126 521.217H550.659L549.655 524H548.205L552.277 513.336H553.508L557.587 524H556.145L555.126 521.217ZM551.083 520.06H554.709L552.893 515.072L551.083 520.06ZM560.283 524H558.928V512.75H560.283V524ZM567.351 523.216C566.823 523.836 566.049 524.146 565.029 524.146C564.184 524.146 563.54 523.902 563.095 523.414C562.656 522.921 562.434 522.193 562.429 521.231V516.075H563.784V521.195C563.784 522.396 564.272 522.997 565.249 522.997C566.284 522.997 566.972 522.611 567.314 521.839V516.075H568.669V524H567.38L567.351 523.216ZM572.009 516.075L572.045 516.954C572.626 516.271 573.41 515.929 574.396 515.929C575.505 515.929 576.259 516.354 576.66 517.203C576.923 516.822 577.265 516.515 577.685 516.28C578.11 516.046 578.61 515.929 579.187 515.929C580.925 515.929 581.809 516.849 581.838 518.69V524H580.483V518.771C580.483 518.204 580.354 517.782 580.095 517.503C579.836 517.22 579.401 517.079 578.791 517.079C578.288 517.079 577.871 517.23 577.539 517.533C577.207 517.831 577.014 518.233 576.96 518.741V524H575.598V518.807C575.598 517.655 575.034 517.079 573.906 517.079C573.017 517.079 572.409 517.457 572.082 518.214V524H570.727V516.075H572.009ZM585.361 524H584.006V516.075H585.361V524ZM583.896 513.973C583.896 513.753 583.962 513.568 584.094 513.417C584.23 513.265 584.431 513.189 584.694 513.189C584.958 513.189 585.158 513.265 585.295 513.417C585.432 513.568 585.5 513.753 585.5 513.973C585.5 514.193 585.432 514.376 585.295 514.522C585.158 514.669 584.958 514.742 584.694 514.742C584.431 514.742 584.23 514.669 584.094 514.522C583.962 514.376 583.896 514.193 583.896 513.973Z" fill="white"/>
<path d="M770.126 521.217H765.659L764.655 524H763.205L767.277 513.336H768.508L772.587 524H771.145L770.126 521.217ZM766.083 520.06H769.709L767.893 515.072L766.083 520.06ZM775.283 524H773.928V512.75H775.283V524ZM782.351 523.216C781.823 523.836 781.049 524.146 780.029 524.146C779.184 524.146 778.54 523.902 778.095 523.414C777.656 522.921 777.434 522.193 777.429 521.231V516.075H778.784V521.195C778.784 522.396 779.272 522.997 780.249 522.997C781.284 522.997 781.972 522.611 782.314 521.839V516.075H783.669V524H782.38L782.351 523.216ZM787.009 516.075L787.045 516.954C787.626 516.271 788.41 515.929 789.396 515.929C790.505 515.929 791.259 516.354 791.66 517.203C791.923 516.822 792.265 516.515 792.685 516.28C793.11 516.046 793.61 515.929 794.187 515.929C795.925 515.929 796.809 516.849 796.838 518.69V524H795.483V518.771C795.483 518.204 795.354 517.782 795.095 517.503C794.836 517.22 794.401 517.079 793.791 517.079C793.288 517.079 792.871 517.23 792.539 517.533C792.207 517.831 792.014 518.233 791.96 518.741V524H790.598V518.807C790.598 517.655 790.034 517.079 788.906 517.079C788.017 517.079 787.409 517.457 787.082 518.214V524H785.727V516.075H787.009ZM800.361 524H799.006V516.075H800.361V524ZM798.896 513.973C798.896 513.753 798.962 513.568 799.094 513.417C799.23 513.265 799.431 513.189 799.694 513.189C799.958 513.189 800.158 513.265 800.295 513.417C800.432 513.568 800.5 513.753 800.5 513.973C800.5 514.193 800.432 514.376 800.295 514.522C800.158 514.669 799.958 514.742 799.694 514.742C799.431 514.742 799.23 514.669 799.094 514.522C798.962 514.376 798.896 514.193 798.896 513.973Z" fill="white"/>
<path d="M985.126 521.217H980.659L979.655 524H978.205L982.277 513.336H983.508L987.587 524H986.145L985.126 521.217ZM981.083 520.06H984.709L982.893 515.072L981.083 520.06ZM990.283 524H988.928V512.75H990.283V524ZM997.351 523.216C996.823 523.836 996.049 524.146 995.029 524.146C994.184 524.146 993.54 523.902 993.095 523.414C992.656 522.921 992.434 522.193 992.429 521.231V516.075H993.784V521.195C993.784 522.396 994.272 522.997 995.249 522.997C996.284 522.997 996.972 522.611 997.314 521.839V516.075H998.669V524H997.38L997.351 523.216ZM1002.01 516.075L1002.05 516.954C1002.63 516.271 1003.41 515.929 1004.4 515.929C1005.5 515.929 1006.26 516.354 1006.66 517.203C1006.92 516.822 1007.27 516.515 1007.69 516.28C1008.11 516.046 1008.61 515.929 1009.19 515.929C1010.92 515.929 1011.81 516.849 1011.84 518.69V524H1010.48V518.771C1010.48 518.204 1010.35 517.782 1010.09 517.503C1009.84 517.22 1009.4 517.079 1008.79 517.079C1008.29 517.079 1007.87 517.23 1007.54 517.533C1007.21 517.831 1007.01 518.233 1006.96 518.741V524H1005.6V518.807C1005.6 517.655 1005.03 517.079 1003.91 517.079C1003.02 517.079 1002.41 517.457 1002.08 518.214V524H1000.73V516.075H1002.01ZM1015.36 524H1014.01V516.075H1015.36V524ZM1013.9 513.973C1013.9 513.753 1013.96 513.568 1014.09 513.417C1014.23 513.265 1014.43 513.189 1014.69 513.189C1014.96 513.189 1015.16 513.265 1015.29 513.417C1015.43 513.568 1015.5 513.753 1015.5 513.973C1015.5 514.193 1015.43 514.376 1015.29 514.522C1015.16 514.669 1014.96 514.742 1014.69 514.742C1014.43 514.742 1014.23 514.669 1014.09 514.522C1013.96 514.376 1013.9 514.193 1013.9 513.973Z" fill="white"/>
<defs>
<clipPath id="clip0_12_82">
<rect width="30" height="30" fill="white" transform="translate(47 560)"/>
</clipPath>
</defs>
</svg>
