<svg width="100" height="100" viewBox="0 0 100 100" fill="none" xmlns="http://www.w3.org/2000/svg">
<path d="M86.9391 55.9703V48.7828C86.9391 48.4202 86.795 48.0724 86.5386 47.816C86.2822 47.5596 85.9345 47.4156 85.5719 47.4156H83.75V22.5882L86.0062 21.8312C86.2778 21.74 86.5139 21.5659 86.6811 21.3333C86.8483 21.1008 86.9383 20.8216 86.9383 20.5351C86.9383 20.2487 86.8483 19.9695 86.6811 19.7369C86.5139 19.5043 86.2778 19.3302 86.0062 19.239L50.4352 7.29761C50.1528 7.20304 49.8472 7.20304 49.5648 7.29761L13.993 19.2382C13.7214 19.3294 13.4854 19.5036 13.3181 19.7361C13.1509 19.9687 13.0609 20.2479 13.0609 20.5343C13.0609 20.8208 13.1509 21.1 13.3181 21.3325C13.4854 21.5651 13.7214 21.7393 13.993 21.8304L25.5898 25.7234V46.9617C25.5898 47.8375 25.5898 49.1617 33.4672 50.5609C38.9294 51.4824 44.4607 51.9333 50 51.9086C55.5393 51.9333 61.0706 51.4824 66.5328 50.5609C74.4102 49.1617 74.4102 47.8375 74.4102 46.9617V25.7242L81.0164 23.5062V47.4125H79.1953C78.8327 47.4125 78.485 47.5565 78.2286 47.8129C77.9722 48.0693 77.8281 48.417 77.8281 48.7796V55.664H14.7133C14.675 55.664 14.6391 55.6718 14.6023 55.675C10.4617 55.7703 7.22656 61.2461 7.22656 68.2289C7.22656 75.1882 10.4367 80.6507 14.5617 80.7789C14.6122 80.7869 14.663 80.7921 14.7141 80.7945H40.0062L36.05 90.9078C35.9457 91.1741 35.9277 91.4665 35.9983 91.7437C36.0689 92.0209 36.2247 92.2689 36.4437 92.4529C36.6627 92.6369 36.9339 92.7475 37.2191 92.7693C37.5044 92.7911 37.7892 92.7228 38.0336 92.5742L42.5094 89.8523L44.2023 92.2054C44.3289 92.3814 44.4955 92.5247 44.6884 92.6236C44.8813 92.7225 45.095 92.7741 45.3117 92.7742C45.3689 92.7739 45.426 92.7703 45.4828 92.7632C45.7268 92.7323 45.958 92.6362 46.152 92.485C46.346 92.3337 46.4957 92.133 46.5852 91.9039L50 83.1773L53.4141 91.9046C53.5036 92.1338 53.6532 92.3345 53.8472 92.4857C54.0412 92.637 54.2724 92.7331 54.5164 92.764C54.5732 92.7711 54.6303 92.7747 54.6875 92.775C54.9043 92.7749 55.1179 92.7233 55.3108 92.6244C55.5037 92.5255 55.6703 92.3822 55.7969 92.2062L57.4898 89.8531L61.9656 92.575C62.21 92.7236 62.4949 92.7918 62.7801 92.7701C63.0653 92.7483 63.3365 92.6377 63.5555 92.4537C63.7745 92.2697 63.9303 92.0216 64.0009 91.7444C64.0716 91.4673 64.0535 91.1749 63.9492 90.9085L59.993 80.7953H85.2859C89.4844 80.7953 92.7727 75.2765 92.7727 68.2296C92.7734 62.1523 90.3367 57.2015 86.9391 55.9703ZM50 10.0359L81.2758 20.5343L50 31.0343L18.7242 20.5343L50 10.0359ZM71.6758 46.4148C69.8008 47.3609 61.3695 49.1742 50 49.1742C38.6305 49.1742 30.1977 47.3609 28.3242 46.4148V26.6406L49.5648 33.7711C49.8472 33.8656 50.1528 33.8656 50.4352 33.7711L71.6758 26.6406V46.4148ZM80.5625 50.146H84.2047V58.9617L83.2812 58.1546C83.032 57.9356 82.7115 57.8147 82.3797 57.8147C82.0479 57.8147 81.7274 57.9356 81.4781 58.1546L80.5586 58.9609L80.5625 50.146ZM58.368 68.2289C58.368 74.0226 55.8633 78.0601 53.6156 78.0601H51.0938C52.7969 75.7757 53.8727 72.2546 53.8727 68.2289C53.8727 64.2031 52.7953 60.6828 51.0938 58.3984H53.6164C55.8594 58.3984 58.368 62.4359 58.368 68.2289ZM19.4203 78.0601C21.1258 75.7765 22.2031 72.2546 22.2031 68.2289C22.2031 64.2031 21.1258 60.682 19.4211 58.3984H46.3852C48.6328 58.3984 51.1375 62.4359 51.1375 68.2289C51.1375 74.0218 48.6328 78.0601 46.3852 78.0601H19.4203ZM15.4219 69.5961H19.4156C19.1078 73.9515 17.3703 77.0906 15.5687 77.8687C13.8797 73.2242 14.868 70.5765 15.4219 69.5961ZM9.96094 68.2289C9.96094 62.4367 12.4609 58.4007 14.7109 58.4007C16.7789 58.4007 19.0586 61.814 19.4148 66.8617H14.7109C14.5223 66.8618 14.3358 66.901 14.163 66.9767C13.9902 67.0524 13.835 67.163 13.707 67.3015C13.5727 67.4468 10.8836 70.4835 12.3523 76.6328C11.007 74.9703 9.96094 71.9703 9.96094 68.2289ZM44.9547 88.5679L43.9898 87.2273C43.7886 86.9479 43.4894 86.7547 43.152 86.6862C42.8146 86.6177 42.4638 86.679 42.1695 86.8578L40.0711 88.1343L42.943 80.7906H47.9953L44.9547 88.5679ZM59.9289 88.1343L57.8305 86.8578C57.5363 86.6788 57.1854 86.6174 56.8479 86.686C56.5105 86.7545 56.2113 86.9478 56.0102 87.2273L55.0453 88.5679L52.0039 80.7945H57.0562L59.9289 88.1343ZM85.2867 78.0562H58.3234C60.0266 75.7718 61.1023 72.2507 61.1023 68.225C61.1023 64.1992 60.0266 60.6789 58.3234 58.3945H77.8281V61.975C77.8287 62.2371 77.9047 62.4936 78.047 62.7138C78.1893 62.934 78.3919 63.1086 78.6307 63.2169C78.8695 63.3252 79.1343 63.3625 79.3937 63.3245C79.6531 63.2864 79.8961 63.1746 80.0938 63.0023L82.3805 60.9976L84.6672 63.0023C84.8648 63.1746 85.1078 63.2864 85.3672 63.3245C85.6266 63.3625 85.8915 63.3252 86.1302 63.2169C86.369 63.1086 86.5716 62.934 86.7139 62.7138C86.8562 62.4936 86.9322 62.2371 86.9328 61.975V59.0843C88.6047 60.4703 90.0328 63.85 90.0328 68.225C90.0391 74.0226 87.5344 78.0601 85.2867 78.0601V78.0562Z" fill="#5A5252"/>
</svg>
