<svg width="100" height="100" viewBox="0 0 100 100" fill="none" xmlns="http://www.w3.org/2000/svg">
<g clip-path="url(#clip0_25_30)">
<path d="M98.5763 26.2591C98.5761 26.2591 98.5761 26.2591 98.5759 26.2591L98.5726 26.2558L92.1179 25.3349C91.2106 25.2057 90.5799 24.3655 90.7091 23.4582C90.7711 23.0223 91.0041 22.629 91.3562 22.3648L96.5731 18.4521C97.3063 17.9023 97.4548 16.8623 96.905 16.1291L90.9315 8.16444C90.3816 7.43123 89.3416 7.28272 88.6084 7.83258L83.3932 11.7452C82.6632 12.2992 81.6224 12.1565 81.0684 11.4264C80.7993 11.072 80.684 10.6241 80.7483 10.1838L81.6709 3.72912C81.8009 2.82189 81.171 1.98125 80.264 1.85099C80.2634 1.85099 80.2628 1.85079 80.2621 1.85079L70.4125 0.443697C69.5055 0.313441 68.6644 0.943147 68.5342 1.85037C68.5342 1.85058 68.5342 1.85058 68.5342 1.85079L67.6116 8.30548C67.4824 9.2127 66.6422 9.84344 65.7349 9.71423C65.299 9.65221 64.9057 9.41928 64.6415 9.0671L60.7305 3.85025C60.1806 3.11704 59.1407 2.96853 58.4075 3.51839L53.4212 7.26012C51.1654 7.02035 48.8905 7.02035 46.6347 7.26012C31.8615 8.94866 20.2765 20.7301 18.8364 35.5297C18.7916 35.9993 18.775 36.4655 18.7518 36.9318H18.254C17.4666 36.9332 16.7886 37.4879 16.6312 38.2592L15.4846 43.7117L10.8916 40.5441C10.2325 40.0892 9.34227 40.1703 8.77603 40.7366L3.79812 45.7145C3.23271 46.2805 3.15182 47.1695 3.60564 47.8284L6.75832 52.4131L1.30419 53.5597C0.541321 53.7268 -0.00168603 54.4032 -2.67252e-05 55.1841V61.8213C-0.000441551 62.6062 0.54941 63.284 1.31746 63.4458L6.77159 64.5924L3.61891 69.177C3.16509 69.836 3.24599 70.725 3.81139 71.291L8.7893 76.2689C9.35554 76.8351 10.2458 76.9162 10.9049 76.4614L15.4896 73.3004L16.6361 78.7545C16.7936 79.5259 17.4716 80.0805 18.2589 80.082H24.8962C25.681 80.0824 26.3588 79.5325 26.5206 78.7645L27.6672 73.3104L32.2519 76.463C32.9108 76.9169 33.7998 76.836 34.3658 76.2706L36.9427 73.6854V78.4144C36.9502 80.7749 38.2148 82.9526 40.2613 84.129V93.3481C40.2613 97.0137 43.2329 99.9853 46.8985 99.9853H53.5357C57.2014 99.9853 60.173 97.0137 60.173 93.3481V84.129C62.2195 82.9526 63.4841 80.7749 63.4916 78.4144V71.8468C63.5366 69.0835 64.9822 66.5323 67.3295 65.0736C68.7065 64.1802 70.0124 63.1815 71.2355 62.0868L69.022 59.6145C67.9279 60.5951 66.7589 61.4889 65.5259 62.2876C62.2311 64.3555 60.2142 67.957 60.173 71.8468V78.4144C60.173 80.2473 58.6873 81.733 56.8543 81.733H43.5799C41.747 81.733 40.2613 80.2473 40.2613 78.4144V71.7091C40.2229 67.8929 38.2378 64.3609 34.998 62.344C21.8466 54.0803 17.8842 36.72 26.1479 23.5686C31.2751 15.4087 40.2234 10.4422 49.8604 10.4078C49.8357 10.4669 49.8139 10.5273 49.7957 10.5887C49.7341 11.0242 49.8481 11.4667 50.1126 11.8182L54.0236 17.0334C54.4359 17.5671 54.4755 18.3001 54.1231 18.8752C53.7838 19.4539 53.1278 19.7696 52.4638 19.6734L46.0091 18.7508C45.1019 18.6207 44.2613 19.2507 44.131 20.1577C44.131 20.1583 44.1308 20.1589 44.1308 20.1595L42.7221 30.0141C42.592 30.9212 43.2219 31.762 44.1289 31.8923C44.1296 31.8923 44.1302 31.8925 44.1308 31.8925L50.5855 32.815C51.4927 32.9443 52.1235 33.7845 51.9942 34.6917C51.9322 35.1277 51.6993 35.521 51.3471 35.7852L46.1319 39.6962C45.3987 40.246 45.2502 41.286 45.8001 42.0192L51.7736 49.9839C52.3234 50.7171 53.3634 50.8656 54.0966 50.3157L59.3134 46.4047C60.0473 45.8559 61.0872 46.0059 61.636 46.7399C61.8986 47.0911 62.0117 47.532 61.9501 47.9661L61.0292 54.4208C60.8989 55.3279 61.5286 56.1689 62.4358 56.2992C62.436 56.2992 62.436 56.2992 62.4362 56.2992L72.2925 57.7079C72.3701 57.7179 72.4483 57.7229 72.5265 57.7229C73.3526 57.7239 74.0534 57.117 74.1708 56.2992L75.0918 49.8445C75.221 48.9373 76.0612 48.3065 76.9684 48.4357C77.4044 48.4977 77.7977 48.7307 78.0619 49.0829L81.9745 54.2981C82.5244 55.0313 83.5644 55.1798 84.2976 54.6299L92.2622 48.6564C92.9954 48.1066 93.1439 47.0666 92.5941 46.3334L88.6831 41.1182C88.2726 40.5837 88.233 39.8519 88.5835 39.2764C88.9156 38.69 89.5777 38.3723 90.2429 38.4799L96.6975 39.4008C97.6046 39.5311 98.4456 38.9012 98.5759 37.9941C98.5759 37.9939 98.5759 37.9939 98.5759 37.9937L99.983 28.1375C100.113 27.2302 99.4835 26.3894 98.5763 26.2591ZM43.5799 85.0516H56.8543V88.3702H43.5799V85.0516ZM43.5799 91.6888H56.8543V93.3481C56.8543 95.181 55.3686 96.6667 53.5357 96.6667H46.8985C45.0656 96.6667 43.5799 95.181 43.5799 93.3481V91.6888ZM30.3702 63.0741C31.2762 63.815 32.2228 64.5048 33.206 65.1399C34.7738 66.1308 35.954 67.6297 36.5494 69.3861L32.9902 72.9387L29.5439 70.5625C28.0347 69.5226 25.9683 69.903 24.9281 71.4121C24.6788 71.774 24.5037 72.1818 24.4133 72.6118L23.5438 76.7551H19.5997L18.7302 72.6184C18.3527 70.8249 16.5928 69.6769 14.7993 70.0544C14.3693 70.1448 13.9616 70.3199 13.5996 70.5692L10.1516 72.9387L7.12834 69.9221L9.5028 66.4773C10.5438 64.9688 10.1647 62.9022 8.65615 61.8612C8.294 61.6112 7.88581 61.4358 7.45522 61.3451L3.31858 60.474V56.5315L7.45522 55.6603C9.2481 55.2802 10.3934 53.5186 10.0132 51.7255C9.92302 51.3001 9.75025 50.8967 9.50446 50.5381L7.12834 47.0834L10.1516 44.0668L13.6013 46.4429C15.111 47.4818 17.1775 47.1002 18.2164 45.5904C18.4653 45.2289 18.64 44.8216 18.7302 44.392L19.0206 43.0115C19.2865 44.9234 19.7268 46.8067 20.3364 48.6382C14.8767 49.289 10.9783 54.2429 11.6292 59.7026C12.2801 65.1623 17.2339 69.0607 22.6936 68.4098C25.9803 68.0178 28.8573 66.0181 30.3702 63.0741ZM27.7933 60.7362C26.5542 64.1802 22.7579 65.9677 19.3138 64.7289C15.8698 63.4898 14.0823 59.6935 15.3211 56.2494C16.269 53.6146 18.7706 51.8597 21.5707 51.8655C21.5923 51.8655 21.6122 51.8655 21.6338 51.8655C23.1597 55.1557 25.2436 58.1568 27.7933 60.7362ZM95.5161 35.8765L90.7041 35.1895C87.9825 34.8008 85.4612 36.6922 85.0725 39.4137C84.8858 40.7206 85.226 42.0482 86.0183 43.1044L88.9337 46.9921L83.6239 50.9745L80.7068 47.0884C79.0575 44.8888 75.9374 44.4426 73.738 46.092C72.6818 46.8839 71.9835 48.063 71.7964 49.3699L71.1244 54.1885L64.5552 53.2494L65.2421 48.4374C65.6319 45.7159 63.7415 43.1938 61.02 42.8043C59.7123 42.617 58.384 42.9571 57.3273 43.7499L53.4395 46.6653L49.4572 41.3555L53.3433 38.4384C55.5429 36.7891 55.989 33.669 54.3397 31.4696C53.5478 30.4134 52.3686 29.7151 51.0617 29.528L46.2497 28.841L47.1889 22.2718L52.0009 22.9588C54.7223 23.3485 57.2445 21.4582 57.634 18.7367C57.8213 17.4289 57.4812 16.1007 56.6884 15.0439L53.7631 11.1528L59.0728 7.17051L61.9899 11.0583C63.6392 13.2579 66.7594 13.704 68.9588 12.0547C70.0149 11.2628 70.7133 10.0836 70.9004 8.77672L71.5873 3.96474L78.1565 4.90225L77.4695 9.71423C77.0808 12.4359 78.972 14.9572 81.6937 15.3459C83.0006 15.5326 84.3283 15.1924 85.3844 14.4001L89.2722 11.4847L93.2545 16.7945L89.3667 19.7115C87.1671 21.3609 86.721 24.481 88.3703 26.6804C89.1622 27.7365 90.3414 28.4349 91.6483 28.622L96.4603 29.3089L95.5161 35.8765Z" fill="#5A5252"/>
<path d="M71.35 15.7988C64.0188 15.7988 58.0756 21.742 58.0756 29.0733C58.0756 36.4045 64.0188 42.3477 71.35 42.3477C78.6813 42.3477 84.6245 36.4045 84.6245 29.0733C84.6162 21.7454 78.6779 15.8069 71.35 15.7988ZM71.35 39.0291C65.8515 39.0291 61.3942 34.5718 61.3942 29.0733C61.3942 23.5747 65.8515 19.1174 71.35 19.1174C76.8486 19.1174 81.3059 23.5747 81.3059 29.0733C81.2994 34.5691 76.8459 39.0227 71.35 39.0291Z" fill="#5A5252"/>
<path d="M51.8765 73.4364H48.5579V78.4143H51.8765V73.4364Z" fill="#5A5252"/>
<path d="M42.9594 57.1404C32.7163 53.139 27.6564 41.5915 31.658 31.3484C33.2087 27.3793 35.9915 24.0124 39.5976 21.7425L37.8238 18.9349C26.9686 25.7735 23.7125 40.1172 30.5511 50.9723C33.1995 55.1764 37.1263 58.4205 41.7547 60.2284C45.8515 61.7981 48.5568 65.7306 48.5578 70.1178H51.8765C51.8816 64.3617 48.3345 59.1994 42.9594 57.1404Z" fill="#5A5252"/>
<path d="M93.3591 61.8213H81.7439V65.1399H93.3591V61.8213Z" fill="#5A5252"/>
<path d="M81.1471 70.5012L79.0228 73.0509L88.9794 81.3461L91.1036 78.7964L81.1471 70.5012Z" fill="#5A5252"/>
<path d="M75.1067 75.0957H71.7881V86.7108H75.1067V75.0957Z" fill="#5A5252"/>
<path d="M14.9679 25.3653L1.69437 28.6833L2.49873 31.9011L15.7722 28.5831L14.9679 25.3653Z" fill="#5A5252"/>
<path d="M6.37849 9.03476L4.45068 11.7338L16.0649 20.0294L17.9927 17.3304L6.37849 9.03476Z" fill="#5A5252"/>
<path d="M21.8829 0.0139188L18.6678 0.835938L22.0615 14.1093L25.2766 13.2873L21.8829 0.0139188Z" fill="#5A5252"/>
</g>
<defs>
<clipPath id="clip0_25_30">
<rect width="100" height="100" fill="white"/>
</clipPath>
</defs>
</svg>
