<svg width="108" height="108" viewBox="0 0 108 108" fill="none" xmlns="http://www.w3.org/2000/svg">
<g clip-path="url(#clip0_25_0)" filter="url(#filter0_d_25_0)">
<path d="M102.333 13.1183C102.154 12.6513 101.751 12.3068 101.262 12.2029C100.772 12.099 100.264 12.2496 99.9104 12.6031L92.9319 19.5816C92.735 19.7785 92.4141 19.7787 92.217 19.5816L87.6852 15.0496C87.4881 14.8525 87.4881 14.5318 87.6852 14.3347L94.6637 7.35624C95.0172 7.00272 95.1678 6.49413 95.0639 6.00487C94.9598 5.51581 94.6153 5.11249 94.1485 4.93339C88.902 2.92128 82.9467 4.18632 78.9768 8.15623C75.2864 11.8467 73.9301 17.2808 75.3883 22.2457L70.2202 26.9716C69.4387 26.5576 68.6335 26.1861 67.8098 25.8632L68.0204 23.1037C68.1303 21.6662 67.1407 20.4021 65.7188 20.1632L62.077 19.5517C60.6546 19.313 59.3071 20.1845 58.9413 21.5787L58.2388 24.2558C57.4647 24.2875 56.6921 24.3576 55.9259 24.4658L55.2317 22.9869V19.6486C55.2317 19.6478 55.2317 19.6472 55.2317 19.6464V19.6293C55.2317 19.608 55.2298 19.591 55.2292 19.5716C55.2282 19.547 55.228 19.5222 55.2259 19.4976C55.2251 19.4882 55.2235 19.4802 55.2224 19.4713C55.1983 19.2457 55.1229 19.022 54.9897 18.8191C54.5425 18.1373 53.6269 17.9478 52.9452 18.3947C51.3737 19.4259 47.6306 20.0593 45.6388 20.0593C40.7593 20.0593 36.0593 18.316 32.0691 15.133L27.4121 10.1133C28.3029 8.78006 29.3085 7.63084 30.4126 6.69139C35.0376 2.75585 40.474 2.95292 40.5243 2.95605C43.9605 3.13339 47.2185 4.68983 50.2083 7.58143C52.8722 10.1582 54.8612 13.8293 56.1202 18.4925C56.3327 19.2798 57.1433 19.7463 57.9306 19.5332C58.7179 19.3205 59.1839 18.5101 58.9712 17.7228C57.5714 12.5375 55.3138 8.41131 52.2612 5.45858C48.7441 2.05625 44.8464 0.221874 40.6769 0.00644468C40.4095 -0.00703186 34.0464 -0.278711 28.4992 4.44198C26.9062 5.79745 25.4964 7.49959 24.3074 9.50096C24.3068 9.50193 24.3062 9.50252 24.3056 9.5035C24.3037 9.50682 24.3017 9.51014 24.2998 9.51346C24.2959 9.5201 24.2916 9.52674 24.2875 9.53338C24.2865 9.53494 24.2861 9.5365 24.2851 9.53807C23.1798 11.3172 22.4035 13.2556 21.9791 15.3004C21.6011 17.1222 21.5125 18.9867 21.7158 20.8414C21.7623 21.2644 21.989 21.647 22.3379 21.891C22.588 22.066 22.8838 22.1572 23.1836 22.1572C23.3017 22.1572 23.4205 22.1429 23.5371 22.1142C23.9066 22.023 24.2722 21.9207 24.6337 21.8076V30.93C24.6337 36.0736 27.1878 40.6292 31.0917 43.404V45.8398C31.0917 47.0405 30.4486 48.1413 29.3906 48.9136C29.3402 48.9437 29.291 48.9767 29.2439 49.013C28.6289 49.4302 27.889 49.7431 27.0584 49.9054L20.2414 51.2401C13.9224 52.4774 9.50897 57.2128 9.50897 62.7555V83.4272C9.50897 87.0719 10.9045 90.5219 13.4385 93.1412L17.2156 97.0459H6.19999C5.38457 97.0459 4.72343 97.707 4.72343 98.5225C4.72343 99.3379 5.38457 99.999 6.19999 99.999H20.6984H21.7214H58.672H60.6796H73.4995C74.3149 99.999 74.976 99.3379 74.976 98.5225C74.976 97.707 74.3149 97.0459 73.4995 97.0459H63.7899L67.4229 92.5934C69.6548 89.8578 70.884 86.4071 70.884 82.8768V68.1065C71.7411 67.6153 72.5708 67.0717 73.3598 66.4774L75.6059 68.1022C76.0985 68.4587 76.667 68.6321 77.2309 68.6321C78.0038 68.6321 78.7682 68.3059 79.3155 67.6772L81.7407 64.8925C82.6879 63.8053 82.6495 62.2003 81.652 61.1595L79.7381 59.162C80.2487 58.2458 80.6975 57.2948 81.0807 56.3177L83.8405 56.5284C85.2797 56.6364 86.542 55.6485 86.7807 54.2268L87.3922 50.5849C87.6309 49.1632 86.7594 47.8151 85.3653 47.4493L82.6881 46.7468C82.6565 45.9726 82.5864 45.2001 82.4784 44.4339L84.9823 43.2583C86.2871 42.6458 86.9 41.1622 86.4075 39.8072L85.1459 36.3367C84.7053 35.1247 83.5209 34.404 82.2782 34.5286L84.743 31.796C89.7873 33.3952 95.3281 32.072 99.1107 28.2894C103.08 24.3201 104.345 18.3648 102.333 13.1183ZM55.2313 30.9296V27.5671C55.2688 27.563 55.3058 27.5626 55.3433 27.5554C56.6653 27.3013 58.0218 27.1785 59.3698 27.19C59.3741 27.19 59.3784 27.19 59.3829 27.19C60.0534 27.19 60.6405 26.7378 60.811 26.0882L61.7548 22.4918L65.063 23.0474L64.78 26.755C64.7286 27.4289 65.1415 28.0519 65.7821 28.2671C66.4973 28.5074 67.1997 28.7892 67.8846 29.1076L65.0948 31.6589C64.1622 31.3296 63.1977 31.0796 62.2163 30.915C59.8788 30.5224 57.4991 30.6205 55.2251 31.1919C55.2261 31.104 55.2313 31.0175 55.2313 30.9296ZM54.8325 34.3861C57.0393 33.6328 59.4071 33.4376 61.7264 33.8271C62.0011 33.8732 62.2741 33.9277 62.545 33.9896L49.3144 46.0894C49.3083 46.0066 49.3009 45.9237 49.3009 45.8398V43.0118C52.0325 40.889 54.0263 37.8636 54.8325 34.3861ZM25.7683 18.1941C25.5794 18.239 25.405 18.3195 25.2521 18.4293C25.025 18.5277 24.7959 18.6224 24.5634 18.7097C24.5757 17.7666 24.6781 16.8269 24.8701 15.9006C25.0753 14.9107 25.3841 13.9523 25.7837 13.0302C26.7347 14.1957 27.7494 15.2693 28.8197 16.2447C27.7349 17.1175 26.8093 17.6552 26.3873 17.8822C26.1843 17.9914 25.9771 18.0941 25.7683 18.1941ZM27.5867 30.9298V20.5863C27.6529 20.5519 27.7199 20.5187 27.7855 20.4836C28.3501 20.1802 29.6691 19.4117 31.1476 18.1496C35.4531 21.2988 40.4478 23.0127 45.6384 23.0127C47.2314 23.0127 50.0628 22.6787 52.2679 21.9777L52.2784 30.93C52.2784 37.7376 46.7402 43.2759 39.9327 43.2759C33.1253 43.2759 27.5867 37.7374 27.5867 30.9298ZM67.9311 82.8772H67.9307C67.9307 85.7291 66.938 88.5168 65.1346 90.7268L62.8147 93.5701V70.1161C62.8147 67.7786 61.1182 65.8311 58.8919 65.4372C58.9868 64.6217 59.3927 63.8784 60.0442 63.3553L61.6036 62.1036C62.2395 61.593 62.3413 60.6637 61.8307 60.028C61.3202 59.3921 60.3909 59.2901 59.7552 59.8009L58.1958 61.0526C56.8601 62.1249 56.0542 63.6749 55.9337 65.3632H32.5662C31.7507 65.3632 31.0896 66.0243 31.0896 66.8397C31.0896 67.6551 31.7507 68.3163 32.5662 68.3163H58.0618C59.0544 68.3163 59.862 69.1239 59.862 70.1163V95.8561C59.862 96.5123 59.328 97.0461 58.672 97.0461H21.7209C21.5386 97.0461 21.3664 97.0035 21.2117 96.9299L20.6285 96.327C20.566 96.1822 20.5306 96.0233 20.5306 95.8557V70.1163C20.5306 69.1237 21.3382 68.3163 22.3306 68.3163H26.7293C27.5447 68.3163 28.2058 67.6551 28.2058 66.8397C28.2058 66.0243 27.5447 65.3632 26.7293 65.3632H23.7998C23.6793 63.6747 22.8732 62.1247 21.5377 61.0526L19.9783 59.8009C19.3422 59.2901 18.4129 59.3921 17.9027 60.028C17.3922 60.6639 17.4939 61.5934 18.1299 62.1036L19.6892 63.3555C20.3834 63.9126 20.7966 64.7208 20.8537 65.5991C18.9539 66.2217 17.5775 68.0108 17.5775 70.1163V93.1733L15.5607 91.0883C13.5625 89.0225 12.4617 86.3018 12.4617 83.4274V62.7559C12.4617 58.6444 15.8941 55.1009 20.8084 54.1384L27.6253 52.8036C28.4882 52.6347 29.291 52.354 30.0171 51.9829C30.8998 52.6583 31.8466 53.2444 32.8437 53.7317C33.0523 53.8337 33.2732 53.8819 33.491 53.8819C34.0372 53.8819 34.5626 53.5774 34.8187 53.0534C35.1769 52.3208 34.873 51.4366 34.1404 51.0786C33.5511 50.7905 32.9839 50.4593 32.4414 50.0903C33.4574 48.8976 34.0447 47.4239 34.0447 45.8398V45.0491C35.8581 45.8081 37.847 46.229 39.9325 46.229C42.2228 46.229 44.3954 45.7196 46.348 44.8138V45.84C46.348 47.4233 46.9345 48.8962 47.9497 50.089C45.6734 51.6345 42.9759 52.4739 40.1962 52.4739C39.6318 52.4739 39.0636 52.4397 38.5072 52.372C37.6976 52.2728 36.9615 52.8497 36.863 53.6593C36.7644 54.4688 37.3408 55.205 38.1503 55.3034C38.8243 55.3854 39.5126 55.427 40.196 55.427C43.8864 55.427 47.4575 54.2081 50.371 51.9811C51.0985 52.3532 51.9023 52.6349 52.7669 52.804L59.5839 54.1388C60.5514 54.3282 61.4606 54.6192 62.2985 54.9934C62.3628 55.0282 62.4284 55.0589 62.496 55.0835C65.8009 56.6335 67.9305 59.5182 67.9305 62.7561V82.8772H67.9311ZM65.3559 53.2905L73.1641 44.6337C73.5676 46.415 73.6223 48.2673 73.3155 50.0938C72.8368 52.9444 71.5042 55.5524 69.5122 57.5987C68.5536 55.8987 67.1296 54.4206 65.3559 53.2905ZM82.428 37.505L83.5741 40.6577L80.2108 42.2364C79.5995 42.5236 79.2606 43.1886 79.3883 43.8519C79.6424 45.1737 79.7653 46.5284 79.7536 47.8784C79.7477 48.5544 80.2014 49.148 80.8553 49.3196L84.4518 50.2634L83.8961 53.5718L80.1885 53.2888C79.5151 53.2372 78.8918 53.6503 78.6764 54.2909C78.1698 55.7987 77.4866 57.2466 76.645 58.5946C76.2872 59.1675 76.3641 59.9104 76.8315 60.3979L79.4024 63.0809L77.1993 65.6106L74.1844 63.4298C73.6376 63.0341 72.8919 63.0596 72.3733 63.4921C71.8956 63.8903 71.3973 64.2671 70.8835 64.6217V62.7559C70.8835 62.0167 70.8026 61.2923 70.6516 60.5882C73.604 57.9995 75.5735 54.477 76.2274 50.5831C76.71 47.7095 76.4512 44.7831 75.4856 42.0597L78.7139 38.4804C78.753 38.4732 78.7916 38.4657 78.8305 38.4556L82.428 37.505ZM97.0223 26.2019C93.8281 29.3958 89.0522 30.3773 84.8553 28.7027C84.2811 28.4736 83.6254 28.6265 83.2116 29.0851L72.746 40.6882C72.703 40.7306 72.6626 40.7751 72.6253 40.8218L62.6054 51.9308C61.8259 51.6417 61.0069 51.4081 60.1515 51.2405L53.3345 49.9058C52.504 49.7431 51.764 49.4306 51.1491 49.0134C51.1019 48.9769 51.0526 48.9437 51.0021 48.9136C50.9276 48.8593 50.8573 48.8019 50.7872 48.7444L78.0876 23.7789C78.5317 23.3726 78.6848 22.7373 78.4747 22.1734C76.9334 18.0414 77.9502 13.3588 81.0647 10.2443C83.6366 7.67225 87.2598 6.53319 90.7694 7.07381L85.5971 12.2463C84.9438 12.8996 84.584 13.7679 84.584 14.6918C84.584 15.6158 84.9438 16.4841 85.5971 17.1373L90.1289 21.6693C91.4776 23.0179 93.6717 23.0179 95.0201 21.6693L100.192 16.497C100.733 20.0062 99.594 23.63 97.0223 26.2019Z" fill="#5A5252"/>
<path d="M39.8437 36.9461C41.4949 36.9461 43.0472 36.3031 44.2146 35.1353C44.7911 34.5588 44.7911 33.6238 44.2146 33.0472C43.6382 32.4705 42.7031 32.4707 42.1265 33.0472C41.5167 33.657 40.7058 33.9927 39.8435 33.9927C38.9812 33.9927 38.1704 33.657 37.5605 33.0472C36.9841 32.4707 36.0492 32.4707 35.4724 33.0472C34.8958 33.6236 34.8958 34.5588 35.4724 35.1353C36.64 36.3031 38.1925 36.9461 39.8437 36.9461Z" fill="#5A5252"/>
<path d="M34.4509 26.555C35.297 26.555 35.9829 25.8691 35.9829 25.023C35.9829 24.1769 35.297 23.491 34.4509 23.491C33.6048 23.491 32.9189 24.1769 32.9189 25.023C32.9189 25.8691 33.6048 26.555 34.4509 26.555Z" fill="#5A5252"/>
<path d="M44.8696 26.555C45.7158 26.555 46.4017 25.8691 46.4017 25.023C46.4017 24.1769 45.7158 23.491 44.8696 23.491C44.0235 23.491 43.3376 24.1769 43.3376 25.023C43.3376 25.8691 44.0235 26.555 44.8696 26.555Z" fill="#5A5252"/>
<path d="M40.1962 77.6161C37.4029 77.6161 35.1304 79.8885 35.1304 82.6819C35.1304 85.4753 37.4029 87.7477 40.1962 87.7477C42.9896 87.7477 45.262 85.4753 45.262 82.6819C45.262 79.8885 42.9896 77.6161 40.1962 77.6161ZM40.1962 84.7942C39.0314 84.7942 38.0835 83.8464 38.0835 82.6815C38.0835 81.5167 39.0314 80.5688 40.1962 80.5688C41.3611 80.5688 42.3089 81.5167 42.3089 82.6815C42.3089 83.8465 41.3611 84.7942 40.1962 84.7942Z" fill="#5A5252"/>
</g>
<defs>
<filter id="filter0_d_25_0" x="0" y="0" width="108" height="108" filterUnits="userSpaceOnUse" color-interpolation-filters="sRGB">
<feFlood flood-opacity="0" result="BackgroundImageFix"/>
<feColorMatrix in="SourceAlpha" type="matrix" values="0 0 0 0 0 0 0 0 0 0 0 0 0 0 0 0 0 0 127 0" result="hardAlpha"/>
<feOffset dy="4"/>
<feGaussianBlur stdDeviation="2"/>
<feColorMatrix type="matrix" values="0 0 0 0 0 0 0 0 0 0 0 0 0 0 0 0 0 0 0.25 0"/>
<feBlend mode="normal" in2="BackgroundImageFix" result="effect1_dropShadow_25_0"/>
<feBlend mode="normal" in="SourceGraphic" in2="effect1_dropShadow_25_0" result="shape"/>
</filter>
<clipPath id="clip0_25_0">
<rect width="100" height="100" fill="white" transform="translate(4)"/>
</clipPath>
</defs>
</svg>
